<?xml version="1.0" encoding="UTF-8"?> <svg xmlns="http://www.w3.org/2000/svg" width="650" height="550" viewBox="0 0 650 550" fill="none"><path d="M313.428 509.317C464.23 526.489 606.361 509.317 609 472.153C609 457.709 483.757 446 329.262 446C174.767 446 45 457.709 45 472.153C45 486.596 184.492 494.634 313.428 509.317Z" fill="#262F63"></path><path d="M321.782 276.933H341.343V344.244H298.187V300.528C298.188 294.269 300.675 288.266 305.1 283.841C309.525 279.416 315.526 276.931 321.782 276.933Z" fill="#514975"></path><path d="M264.872 244.401L304.59 267.315L381.734 210.03L401.593 222.25L430.618 197.045" stroke="white"></path><circle cx="303.171" cy="266.457" r="2.80591" fill="#5B84C0"></circle><circle cx="381.079" cy="209.555" r="2.80591" fill="#5B84C0"></circle><circle cx="400.938" cy="221.775" r="2.80591" fill="#5B84C0"></circle><circle cx="431.489" cy="195.806" r="2.80591" fill="#5B84C0"></circle><circle cx="263.453" cy="243.542" r="2.80591" fill="#5B84C0"></circle><rect x="57.4805" y="366.341" width="10.3078" height="71.693" stroke="white"></rect><rect x="75.2493" y="393.804" width="10.3078" height="44.2312" stroke="white"></rect><rect x="93.0193" y="355.034" width="10.3078" height="83.0008" stroke="white"></rect><rect x="110.787" y="337.265" width="10.3078" height="100.77" stroke="white"></rect><g opacity="0.4"><path opacity="0.4" d="M549.039 427.913C567.33 427.913 582.157 413.079 582.157 394.78C582.157 376.481 567.33 361.647 549.039 361.647C530.749 361.647 515.922 376.481 515.922 394.78C515.922 413.079 530.749 427.913 549.039 427.913Z" fill="url(#paint0_linear)"></path><path fill-rule="evenodd" clip-rule="evenodd" d="M558.236 407.009H561.296C562.503 407.009 563.511 408.017 563.511 409.224C563.511 410.432 562.503 411.439 561.295 411.439H560.804H555.866H548.257H541.274H538.227C538.222 411.439 538.218 411.439 538.214 411.44V411.439C537.007 411.439 535.999 410.432 535.999 409.224C535.999 408.009 537.007 407.019 538.214 407.009C538.218 407.009 538.222 407.009 538.226 407.009C538.26 407 538.293 406.99 538.327 406.98C538.412 406.934 538.494 406.884 538.575 406.832C538.741 406.683 538.895 406.523 539.04 406.354C539.297 405.986 539.517 405.594 539.705 405.186C539.964 404.511 540.146 403.81 540.263 403.096C540.355 402.215 540.346 401.318 540.337 400.428C540.334 400.165 540.332 399.903 540.332 399.641V397.483H538.256C537.049 397.483 536.041 396.475 536.041 395.268C536.041 394.06 537.049 393.052 538.256 393.052H540.332V392.367V386.251C540.332 385.374 540.38 384.521 540.51 383.647C540.823 381.557 541.815 379.627 543.167 378.022C544.509 376.429 546.334 375.263 548.299 374.598C549.316 374.253 550.406 374.074 551.477 374.027C552.686 373.974 553.941 374.121 555.103 374.459C556.244 374.791 557.377 375.292 558.356 375.972C558.91 376.357 559.453 376.775 559.942 377.241C560.435 377.712 560.854 378.235 561.268 378.776C562.744 380.708 563.502 383.186 563.511 385.607C563.515 386.814 562.5 387.822 561.296 387.822C560.085 387.822 559.084 386.814 559.08 385.607C559.079 385.285 559.063 384.965 559.031 384.646C558.925 384.021 558.759 383.41 558.532 382.819C558.273 382.259 557.962 381.726 557.6 381.226C557.209 380.752 556.775 380.318 556.301 379.927C555.801 379.566 555.269 379.254 554.709 378.996C554.118 378.769 553.507 378.603 552.883 378.497C552.242 378.433 551.597 378.433 550.957 378.497C550.334 378.603 549.725 378.769 549.135 378.995C548.574 379.254 548.04 379.566 547.54 379.928C547.067 380.318 546.633 380.752 546.243 381.225C545.881 381.726 545.568 382.26 545.309 382.821C545.083 383.412 544.916 384.024 544.811 384.648C544.78 384.948 544.763 385.249 544.762 385.551C544.76 386.453 544.76 387.355 544.761 388.257C544.762 388.699 544.762 389.14 544.762 389.582V393.052H549.491H553.662C554.87 393.052 555.877 394.06 555.877 395.268C555.877 396.475 554.87 397.483 553.662 397.483H550.014H544.762V401.835C544.762 403.599 544.427 405.385 543.725 407.009H551.253H558.236Z" fill="#E0E7FC"></path><path opacity="0.4" d="M407.117 124.717C425.408 124.717 440.235 109.883 440.235 91.584C440.235 73.2852 425.408 58.451 407.117 58.451C388.827 58.451 374 73.2852 374 91.584C374 109.883 388.827 124.717 407.117 124.717Z" fill="url(#paint1_linear)"></path><path fill-rule="evenodd" clip-rule="evenodd" d="M418.084 103.189H421.144C422.352 103.189 423.359 104.196 423.359 105.404C423.359 106.611 422.352 107.619 421.144 107.619H420.653H415.714H408.105H401.123H398.075C398.071 107.619 398.067 107.619 398.063 107.619V107.619C396.855 107.619 395.848 106.611 395.848 105.404C395.848 104.188 396.855 103.199 398.063 103.188C398.067 103.188 398.071 103.188 398.074 103.188C398.108 103.18 398.142 103.17 398.176 103.16C398.26 103.114 398.343 103.064 398.423 103.011C398.589 102.863 398.744 102.703 398.889 102.534C399.146 102.166 399.365 101.773 399.554 101.366C399.813 100.691 399.995 99.9895 400.111 99.2761C400.203 98.3944 400.194 97.4978 400.185 96.6079C400.183 96.3448 400.18 96.0824 400.18 95.8211V93.6629H398.104C396.896 93.6629 395.889 92.6552 395.889 91.4476C395.889 90.2401 396.896 89.2324 398.104 89.2324H400.18V88.5466V82.4304C400.18 81.5533 400.228 80.7003 400.359 79.8267C400.671 77.7371 401.663 75.8064 403.015 74.2021C404.358 72.6091 406.182 71.4428 408.148 70.7774C409.165 70.433 410.254 70.2539 411.325 70.207C412.534 70.1541 413.789 70.3009 414.951 70.639C416.093 70.971 417.226 71.4718 418.205 72.1519C418.759 72.5366 419.302 72.9542 419.79 73.4209C420.283 73.892 420.702 74.4146 421.116 74.9559C422.593 76.8875 423.351 79.3662 423.359 81.7863C423.364 82.9939 422.349 84.0016 421.144 84.0016C419.933 84.0016 418.933 82.9938 418.929 81.7863C418.928 81.465 418.911 81.1447 418.879 80.8255C418.774 80.2011 418.607 79.5901 418.38 78.9987C418.122 78.4386 417.81 77.9059 417.449 77.4056C417.058 76.9319 416.624 76.4975 416.15 76.1065C415.65 75.7456 415.117 75.4341 414.557 75.1755C413.966 74.9489 413.355 74.7822 412.731 74.6767C412.091 74.6129 411.446 74.6128 410.805 74.6769C410.183 74.7822 409.573 74.9486 408.984 75.1747C408.423 75.4334 407.889 75.7457 407.388 76.1075C406.915 76.4978 406.482 76.9317 406.091 77.4045C405.729 77.9055 405.417 78.4395 405.158 79.0008C404.931 79.5921 404.765 80.2036 404.659 80.828C404.629 81.1279 404.612 81.4291 404.611 81.7305C404.608 82.6325 404.609 83.5346 404.61 84.4367C404.61 84.8784 404.611 85.3201 404.611 85.7618V89.2324H409.339H413.51C414.717 89.2324 415.725 90.2401 415.725 91.4476C415.725 92.6552 414.717 93.6629 413.51 93.6629H409.862H404.611V98.0149C404.611 99.7787 404.276 101.565 403.573 103.189H411.102H418.084Z" fill="#E0E7FC"></path><path opacity="0.4" d="M67.6571 91.7947C73.5536 91.7947 78.3337 87.0124 78.3337 81.1131C78.3337 75.2137 73.5536 70.4314 67.6571 70.4314C61.7605 70.4314 56.9805 75.2137 56.9805 81.1131C56.9805 87.0124 61.7605 91.7947 67.6571 91.7947Z" fill="#262F63"></path><path d="M71.6106 82.3953C71.3623 81.9528 71.0219 81.5775 70.6158 81.2982C70.2203 81.0259 69.7908 80.8148 69.3398 80.6714C69.0911 80.589 68.7902 80.504 68.4469 80.4057C68.1709 80.3234 67.8699 80.2464 67.4048 80.1401C66.9228 80.0314 66.4496 79.8822 65.9896 79.6939C65.7649 79.5959 65.566 79.4409 65.4101 79.2423C65.2825 79.0649 65.2198 78.844 65.2335 78.6207C65.2335 78.5862 65.2335 78.5543 65.2335 78.5198C65.2433 78.3315 65.3047 78.1505 65.4101 77.9992C65.5969 77.7568 65.8419 77.5731 66.1189 77.4679C66.5751 77.3035 67.0556 77.2297 67.5366 77.2501C67.9094 77.2502 68.2806 77.302 68.6409 77.4042C68.8797 77.4765 69.1045 77.5934 69.305 77.7495C69.4323 77.8472 69.5412 77.9698 69.6259 78.1107L70.1656 79.0032L71.8394 77.8531L71.2997 76.9606C71.0813 76.596 70.8003 76.2787 70.4715 76.0256C70.0838 75.7243 69.6493 75.4986 69.1881 75.3589C69.0088 75.3047 68.827 75.2604 68.6434 75.2261V73.0001H66.6537V75.1809C66.2552 75.2347 65.8628 75.3308 65.4822 75.4678C64.8609 75.6961 64.3097 76.1011 63.8879 76.6392L63.8606 76.6737C63.4776 77.1933 63.2598 77.8297 63.2388 78.4906C63.1973 79.2186 63.4011 79.9385 63.8133 80.52L63.8456 80.5651C64.2267 81.0626 64.722 81.446 65.2832 81.6781C65.8397 81.9029 66.4118 82.0805 66.9944 82.2093C67.4197 82.3103 67.6908 82.3793 67.9346 82.4537H67.9619C68.2778 82.5387 68.5439 82.6157 68.7752 82.6901C69.0449 82.7751 69.302 82.9003 69.5388 83.062C69.6802 83.1623 69.7991 83.2947 69.887 83.4498C69.9769 83.6406 70.0197 83.8527 70.0114 84.0661C70.0114 84.082 70.0114 84.0979 70.0114 84.1139C70.0199 84.3718 69.951 84.6258 69.8149 84.839C69.6172 85.1334 69.3418 85.3581 69.024 85.4845C68.5412 85.6819 68.0258 85.7723 67.5093 85.7501H67.4471C66.8869 85.7683 66.3307 85.6426 65.8254 85.3836C65.5756 85.2394 65.3615 85.0336 65.2012 84.7832L64.6341 83.9093L63 85.1206L63.5671 85.9945C63.9132 86.5301 64.3747 86.9692 64.9126 87.2748L64.94 87.2881C65.4799 87.5674 66.0586 87.7513 66.6537 87.8326V90.0001H68.6434V87.7848C69.0213 87.7142 69.3914 87.602 69.7477 87.4501C70.4187 87.1769 71.001 86.7018 71.4241 86.0822C71.7614 85.5472 71.9582 84.9255 71.994 84.2817C72.0299 83.638 71.9035 82.9957 71.628 82.4218L71.6106 82.3953Z" fill="white"></path><path opacity="0.4" d="M315.781 141.086C324.345 141.086 331.287 134.14 331.287 125.572C331.287 117.004 324.345 110.059 315.781 110.059C307.217 110.059 300.274 117.004 300.274 125.572C300.274 134.14 307.217 141.086 315.781 141.086Z" fill="url(#paint2_linear)"></path><path d="M322.394 126.922C322.008 126.219 321.478 125.623 320.847 125.179C320.232 124.747 319.563 124.412 318.862 124.184C318.475 124.053 318.007 123.918 317.473 123.762C317.044 123.631 316.575 123.509 315.852 123.34C315.102 123.167 314.366 122.93 313.65 122.631C313.301 122.476 312.992 122.23 312.749 121.914C312.551 121.632 312.453 121.281 312.474 120.927C312.474 120.872 312.474 120.821 312.474 120.767C312.49 120.468 312.585 120.18 312.749 119.94C313.04 119.555 313.421 119.263 313.852 119.096C314.561 118.835 315.309 118.718 316.057 118.75C316.637 118.75 317.214 118.832 317.775 118.995C318.146 119.11 318.496 119.295 318.808 119.543C319.006 119.698 319.175 119.893 319.307 120.117L320.146 121.534L322.75 119.708L321.911 118.29C321.571 117.711 321.134 117.207 320.622 116.805C320.019 116.327 319.343 115.968 318.626 115.746C318.347 115.66 318.064 115.59 317.779 115.535V112H314.683V115.464C314.064 115.549 313.453 115.702 312.861 115.919C311.895 116.282 311.037 116.925 310.381 117.78L310.339 117.835C309.743 118.66 309.404 119.671 309.371 120.72C309.307 121.876 309.624 123.02 310.265 123.943L310.315 124.015C310.908 124.805 311.679 125.414 312.552 125.783C313.417 126.14 314.307 126.422 315.214 126.626C315.875 126.787 316.297 126.896 316.676 127.015H316.719C317.21 127.15 317.624 127.272 317.984 127.39C318.403 127.525 318.803 127.724 319.171 127.981C319.391 128.14 319.576 128.35 319.713 128.597C319.853 128.9 319.92 129.236 319.907 129.575C319.907 129.601 319.907 129.626 319.907 129.651C319.92 130.061 319.813 130.464 319.601 130.803C319.293 131.27 318.865 131.627 318.371 131.828C317.62 132.142 316.818 132.285 316.014 132.25H315.918C315.046 132.279 314.181 132.079 313.395 131.668C313.006 131.439 312.673 131.112 312.424 130.714L311.542 129.326L309 131.25L309.882 132.638C310.421 133.489 311.138 134.186 311.975 134.672L312.018 134.693C312.858 135.136 313.758 135.428 314.683 135.558V139H317.779V135.482C318.367 135.369 318.942 135.191 319.496 134.95C320.54 134.516 321.446 133.761 322.104 132.777C322.629 131.928 322.935 130.94 322.991 129.918C323.047 128.895 322.85 127.875 322.421 126.964L322.394 126.922Z" fill="white"></path><path opacity="0.4" d="M102.218 253.091C119.058 253.091 132.71 239.433 132.71 222.585C132.71 205.737 119.058 192.078 102.218 192.078C85.3774 192.078 71.7256 205.737 71.7256 222.585C71.7256 239.433 85.3774 253.091 102.218 253.091Z" fill="url(#paint3_linear)"></path><path d="M112.918 225.08C112.229 223.805 111.283 222.723 110.155 221.918C109.057 221.133 107.863 220.525 106.611 220.111C105.92 219.874 105.084 219.629 104.13 219.346C103.363 219.108 102.528 218.886 101.236 218.58C99.8966 218.267 98.5822 217.837 97.3044 217.294C96.6803 217.011 96.1278 216.565 95.6947 215.992C95.3404 215.481 95.1661 214.844 95.2041 214.201C95.2041 214.101 95.2041 214.009 95.2041 213.91C95.2313 213.367 95.4019 212.845 95.6947 212.409C96.2136 211.71 96.8942 211.181 97.6637 210.878C98.9308 210.404 100.265 210.191 101.602 210.25C102.637 210.25 103.668 210.399 104.669 210.694C105.332 210.902 105.957 211.239 106.514 211.689C106.868 211.971 107.17 212.324 107.405 212.731L108.904 215.303L113.554 211.988L112.055 209.416C111.448 208.365 110.667 207.45 109.754 206.721C108.677 205.852 107.47 205.202 106.189 204.799C105.691 204.643 105.186 204.515 104.676 204.416V198H99.1491V204.286C98.0423 204.441 96.9522 204.718 95.895 205.113C94.1692 205.771 92.638 206.938 91.4665 208.489L91.3905 208.589C90.3267 210.086 89.7216 211.921 89.6632 213.826C89.548 215.924 90.1141 217.999 91.2592 219.675L91.349 219.805C92.4076 221.239 93.7834 222.344 95.3423 223.013C96.888 223.661 98.4774 224.173 100.096 224.544C101.277 224.835 102.03 225.034 102.707 225.249H102.783C103.661 225.494 104.4 225.716 105.042 225.93C105.791 226.175 106.505 226.536 107.163 227.002C107.556 227.291 107.886 227.673 108.131 228.12C108.38 228.67 108.499 229.281 108.476 229.896C108.476 229.942 108.476 229.988 108.476 230.034C108.5 230.777 108.308 231.509 107.93 232.124C107.381 232.972 106.616 233.62 105.733 233.984C104.392 234.554 102.961 234.814 101.526 234.75H101.353C99.7968 234.802 98.252 234.44 96.8484 233.694C96.1543 233.278 95.5598 232.685 95.1143 231.963L93.5391 229.444L89 232.936L90.5752 235.454C91.5367 236.998 92.8185 238.264 94.3129 239.145L94.3889 239.183C95.8885 239.988 97.4962 240.518 99.1491 240.753V247H104.676V240.615C105.726 240.411 106.754 240.088 107.744 239.65C109.607 238.863 111.225 237.493 112.4 235.707C113.337 234.165 113.884 232.373 113.983 230.518C114.083 228.662 113.732 226.811 112.967 225.157L112.918 225.08Z" fill="white"></path></g><rect x="113.587" y="139.615" width="179.863" height="124.374" fill="#F3BF75"></rect><rect x="126.983" y="151.096" width="156.902" height="80.3644" fill="#F2F9FD"></rect><line x1="161.806" y1="151.096" x2="161.806" y2="263.989" stroke="black" stroke-width="0.7645"></line><line x1="253.648" y1="151.096" x2="253.648" y2="263.989" stroke="black" stroke-width="0.7645"></line><rect x="102.107" y="231.457" width="302.323" height="44.0091" fill="#262F63"></rect><rect x="113.587" y="275.47" width="243.007" height="170.296" fill="#F3BF75"></rect><rect x="127.02" y="295.294" width="216.569" height="150.216" fill="#F2F9FD"></rect><rect x="96.3655" y="263.99" width="315.717" height="11.4806" fill="#262F63"></rect><rect x="102.107" y="445.767" width="480.273" height="11.4806" fill="#453F68"></rect><rect opacity="0.6" x="126.984" y="295.377" width="216.219" height="9.5672" fill="#5E82B7"></rect><rect opacity="0.6" x="113.587" y="275.47" width="243.007" height="11.4806" fill="#C8803D"></rect><rect opacity="0.6" x="113.587" y="139.615" width="179.863" height="11.4806" fill="#C8803D"></rect><rect opacity="0.6" x="126.983" y="151.096" width="156.902" height="11.4806" fill="#5E82B7"></rect><rect x="96.3657" y="128.134" width="216.219" height="11.4806" fill="#262F63"></rect><line x1="186.383" y1="295.294" x2="186.383" y2="445.51" stroke="#5982BE" stroke-width="0.7645"></line><line x1="435.427" y1="336.7" x2="435.427" y2="430.458" stroke="black" stroke-width="0.7645"></line><line x1="521.534" y1="336.7" x2="521.534" y2="430.458" stroke="black" stroke-width="0.7645"></line><line x1="278.54" y1="295.294" x2="278.54" y2="445.51" stroke="#5982BE" stroke-width="0.7645"></line><path d="M81.3255 452.656C81.3255 452.656 80.8882 458.185 113.893 459.05H417.542L460.56 444.721L407.422 407.357L308.407 404.822L123.907 404.379L81.3255 452.656Z" fill="#262F63"></path><path d="M209.021 449.765C209.021 449.923 209.021 450.081 209.021 450.239C208.811 461.365 201.654 471.162 191.131 474.726C180.306 478.385 168.361 474.626 161.569 465.423C154.777 456.219 154.69 443.676 161.354 434.38C168.018 425.083 179.909 421.158 190.784 424.665C201.659 428.173 209.031 438.311 209.029 449.757L209.021 449.765Z" fill="#262F63"></path><path d="M366.512 449.765C366.512 449.923 366.512 450.081 366.512 450.239C366.302 461.363 359.146 471.16 348.626 474.726C337.801 478.385 325.857 474.626 319.064 465.423C312.272 456.219 312.185 443.676 318.849 434.38C325.513 425.083 337.404 421.158 348.279 424.665C359.154 428.173 366.526 438.311 366.524 449.757L366.512 449.765Z" fill="#262F63"></path><path d="M460.562 444.72L417.654 452.655C414.681 409.999 375.077 412.977 375.077 412.977C338.772 415.287 337.463 452.655 337.463 452.655H187.261C181.667 410.99 145.69 412.977 145.69 412.977C108.723 414.3 106.081 452.655 106.081 452.655H81.3274C79.0173 405.042 86.9413 400.081 86.9413 400.081C101.134 387.837 178.036 383.888 178.036 383.888L178.462 383.603L220.838 355.3L223.578 353.468C248 340.24 333.174 340.571 333.174 340.571C363.896 340.571 385.828 341.757 401.207 343.262C426.138 345.675 433.841 348.839 433.841 348.839L423.942 356.774C428.231 363.717 431.862 379.259 431.862 379.259L441.103 381.573L443.235 384.121L449.685 391.827L449.354 412.989C465.194 419.261 460.562 444.72 460.562 444.72Z" fill="url(#paint4_linear)"></path><path d="M410.396 359.408C409.075 366.683 389.931 383.058 389.931 383.058L336.28 383.872L291.468 384.551L268.531 384.899L208.853 385.799L204.772 385.862C196.237 385.949 190.001 385.574 185.455 384.978C183.098 384.698 180.766 384.235 178.481 383.591L216.745 358.037L220.857 355.272C275.214 347.515 389.943 350.138 389.943 350.138C414.338 352.464 410.396 359.408 410.396 359.408Z" fill="#262F63"></path><path d="M86.2797 409.34C86.2797 409.34 85.6213 416.283 91.2312 416.943H102.108L123.893 404.379C123.893 404.379 129.172 401.733 116.959 402.404C116.974 402.396 95.1932 404.711 86.2797 409.34Z" fill="#262F63"></path><path d="M449.67 391.816H431.188L425.906 398.096C425.906 398.096 423.264 400.41 441.087 407.358L449.67 404.048V391.816Z" fill="#262F63"></path><path d="M179.548 453.203C179.548 453.397 179.548 453.598 179.548 453.788C179.293 467.527 170.461 479.628 157.471 484.038C144.108 488.565 129.356 483.933 120.962 472.574C112.569 461.216 112.452 445.728 120.674 434.245C128.897 422.761 143.577 417.907 157.007 422.232C170.436 426.556 179.545 439.071 179.548 453.203Z" fill="#262F63"></path><path d="M169.66 453.206C169.66 453.34 169.66 453.478 169.66 453.601C169.481 463.162 163.328 471.581 154.285 474.64C144.988 477.781 134.73 474.551 128.898 466.647C123.066 458.742 122.992 447.97 128.716 439.987C134.439 432.003 144.651 428.633 153.991 431.645C163.33 434.658 169.661 443.364 169.66 453.194V453.206Z" fill="#262F63"></path><path d="M165.749 440.459L165.383 440.751C165.383 440.751 158.878 447.367 152.965 446.154C152.965 446.154 148.234 444.483 153.469 431.481C151.433 430.883 149.323 430.575 147.201 430.565H147.087C144.965 430.575 142.855 430.883 140.818 431.481C146.054 444.483 141.323 446.154 141.323 446.154C135.382 447.367 128.893 440.751 128.893 440.751L128.526 440.459C125.964 444.213 124.596 448.656 124.604 453.204C124.604 453.338 124.604 453.477 124.604 453.599C137.448 452.185 137.349 456.518 137.349 456.518C139.32 461.368 129.756 467.32 129.756 467.32L129.606 467.395C132.3 470.744 135.889 473.255 139.955 474.635C143.385 463.742 146.444 463.746 147.051 463.868V463.9L147.11 463.88L147.165 463.9V463.868C147.776 463.746 150.836 463.742 154.262 474.635C158.332 473.256 161.926 470.743 164.622 467.391L164.472 467.316C164.472 467.316 154.936 461.364 156.907 456.514C156.907 456.514 156.808 452.169 169.652 453.595C169.652 453.461 169.652 453.323 169.652 453.2C169.665 448.656 168.304 444.214 165.749 440.459Z" fill="#BBD6EF"></path><path d="M410.626 453.204C410.626 453.397 410.626 453.599 410.626 453.788C410.371 467.527 401.54 479.628 388.55 484.038C375.183 488.569 360.426 483.937 352.028 472.576C343.631 461.215 343.514 445.722 351.739 434.235C359.963 422.747 374.649 417.892 388.082 422.22C401.516 426.547 410.625 439.067 410.626 453.204Z" fill="#262F63"></path><path d="M400.742 453.206C400.742 453.34 400.742 453.478 400.742 453.601C400.563 463.162 394.411 471.581 385.367 474.64C376.07 477.781 365.812 474.551 359.98 466.647C354.148 458.742 354.074 447.97 359.798 439.987C365.521 432.003 375.734 428.633 385.073 431.645C394.412 434.658 400.743 443.364 400.742 453.194V453.206Z" fill="#262F63"></path><path d="M396.832 440.459L396.465 440.751C396.465 440.751 389.976 447.367 384.035 446.154C384.035 446.154 379.304 444.483 384.539 431.481C382.503 430.883 380.393 430.575 378.271 430.565H378.157C376.035 430.575 373.925 430.883 371.889 431.481C377.124 444.483 372.393 446.154 372.393 446.154C366.452 447.367 359.963 440.751 359.963 440.751L359.596 440.459C357.038 444.214 355.675 448.657 355.686 453.204C355.686 453.338 355.686 453.477 355.686 453.599C368.53 452.185 368.431 456.518 368.431 456.518C370.402 461.368 360.838 467.32 360.838 467.32L360.688 467.395C363.384 470.747 366.978 473.26 371.049 474.639C374.475 463.746 377.538 463.75 378.145 463.872V463.904L378.2 463.884L378.259 463.904V463.868C378.87 463.746 381.93 463.742 385.355 474.635C389.426 473.256 393.02 470.743 395.716 467.391L395.566 467.316C395.566 467.316 385.994 461.364 387.973 456.514C387.973 456.514 387.875 452.169 400.719 453.595C400.719 453.461 400.719 453.323 400.719 453.2C400.736 448.657 399.381 444.216 396.832 440.459Z" fill="#BBD6EF"></path><path d="M218.852 358.53L185.437 384.992C183.08 384.713 180.748 384.25 178.463 383.606L216.727 358.052L218.852 358.53Z" fill="#BED9F1"></path><path d="M247.679 359.408L272.981 358.749L268.53 384.899L208.851 385.8C213.759 380.341 232.513 360.55 247.679 359.408Z" fill="#BED9F1"></path><path d="M336.277 383.874L291.464 384.553V358.308L335.252 357.206L336.277 383.874Z" fill="#BED9F1"></path><path d="M358.906 358.039L361.547 377.925C361.547 377.925 386.628 378.921 385.307 363.707C385.307 363.707 382.556 358.872 358.906 358.039Z" fill="url(#paint5_linear)"></path><path d="M256.898 396.606C262.169 396.606 266.443 396.031 266.443 395.322C266.443 394.613 262.169 394.039 256.898 394.039C251.627 394.039 247.354 394.613 247.354 395.322C247.354 396.031 251.627 396.606 256.898 396.606Z" fill="#262F63"></path><path d="M325.272 396.606C330.544 396.606 334.817 396.031 334.817 395.322C334.817 394.613 330.544 394.039 325.272 394.039C320.001 394.039 315.728 394.613 315.728 395.322C315.728 396.031 320.001 396.606 325.272 396.606Z" fill="#262F63"></path><path opacity="0.4" d="M519.559 472.113H358.855C352.294 472.121 345.999 469.736 341.355 465.481C336.711 461.226 334.099 455.451 334.093 449.427V439.273L333.973 246.76C333.973 234.257 323.43 231.522 323.43 231.522H482.027C502.764 231.522 519.574 246.957 519.574 265.998L519.559 472.113Z" fill="black"></path><path d="M538.661 493.369H378.14C371.587 493.378 365.299 490.782 360.66 486.151C356.021 481.52 353.412 475.235 353.407 468.679V457.627L353.287 248.106C353.287 234.498 342.755 231.521 342.755 231.521H501.171C521.885 231.521 538.676 248.32 538.676 269.044L538.661 493.369Z" fill="url(#paint6_linear)"></path><path d="M489.239 352.629H381.645V359.589H489.239V352.629Z" fill="#5982BE"></path><path d="M489.239 338.651H381.645V345.611H489.239V338.651Z" fill="#5982BE"></path><path d="M489.239 366.543H381.645V373.502H489.239V366.543Z" fill="#5982BE"></path><path d="M588.504 440.723H393.413C393.413 440.723 397.269 459.499 390.948 479.577C387.807 489.553 374.741 493.14 374.741 493.14L558.07 493.37C574.879 493.37 588.506 479.738 588.509 462.921L588.504 440.723Z" fill="#5982BE"></path><path d="M400.763 322.987V327.306H381.852V301.624H387.222V322.987H400.763ZM415.438 301.235C417.954 301.235 420.133 301.767 421.975 302.83C423.843 303.894 425.27 305.424 426.255 307.422C427.267 309.393 427.773 311.741 427.773 314.465C427.773 317.189 427.267 319.549 426.255 321.547C425.27 323.518 423.843 325.036 421.975 326.1C420.133 327.163 417.954 327.695 415.438 327.695C412.922 327.695 410.729 327.163 408.862 326.1C406.994 325.036 405.554 323.518 404.542 321.547C403.557 319.549 403.064 317.189 403.064 314.465C403.064 311.741 403.557 309.393 404.542 307.422C405.554 305.424 406.994 303.894 408.862 302.83C410.729 301.767 412.922 301.235 415.438 301.235ZM415.438 305.632C413.259 305.632 411.573 306.397 410.379 307.928C409.212 309.432 408.628 311.611 408.628 314.465C408.628 317.318 409.212 319.51 410.379 321.041C411.573 322.546 413.259 323.298 415.438 323.298C417.591 323.298 419.251 322.546 420.419 321.041C421.612 319.51 422.209 317.318 422.209 314.465C422.209 311.611 421.612 309.432 420.419 307.928C419.251 306.397 417.591 305.632 415.438 305.632ZM446.832 321.041H436.948L434.847 327.306H429.36L438.738 301.624H445.159L454.537 327.306H448.972L446.832 321.041ZM445.509 317.072L443.096 309.834L441.929 305.943H441.851L440.762 309.756L438.271 317.072H445.509ZM480.409 327.306H474.261L465.272 312.208L463.054 307.889H463.016L463.171 312.441V327.306H458.346V301.624H464.455L473.444 316.683L475.662 321.041H475.74L475.584 316.488V301.624H480.409V327.306Z" fill="#5982BE"></path><path d="M406.247 397.583L404.408 394.839L402.511 397.583H400.745L403.489 393.905L400.891 390.287H402.759L404.51 392.928L406.247 390.287H408.041L405.429 393.862L408.085 397.583H406.247ZM414.133 397.583L412.295 394.839L410.398 397.583H408.632L411.375 393.905L408.778 390.287H410.646L412.397 392.928L414.133 390.287H415.928L413.316 393.862L415.972 397.583H414.133ZM422.02 397.583L420.181 394.839L418.284 397.583H416.519L419.262 393.905L416.665 390.287H418.532L420.283 392.928L422.02 390.287H423.815L421.203 393.862L423.858 397.583H422.02ZM429.907 397.583L428.068 394.839L426.171 397.583H424.405L427.149 393.905L424.551 390.287H426.419L428.17 392.928L429.907 390.287H431.701L429.089 393.862L431.745 397.583H429.907ZM437.793 397.583L435.955 394.839L434.058 397.583H432.292L435.035 393.905L432.438 390.287H434.306L436.057 392.928L437.793 390.287H439.588L436.976 393.862L439.632 397.583H437.793ZM445.68 397.583L443.841 394.839L441.944 397.583H440.179L442.922 393.905L440.325 390.287H442.192L443.943 392.928L445.68 390.287H447.475L444.863 393.862L447.518 397.583H445.68ZM453.567 397.583L451.728 394.839L449.831 397.583H448.065L450.809 393.905L448.211 390.287H450.079L451.83 392.928L453.567 390.287H455.361L452.749 393.862L455.405 397.583H453.567Z" fill="#5982BE"></path><path opacity="0.2" fill-rule="evenodd" clip-rule="evenodd" d="M538.582 295.006C536.833 295.196 535.055 295.294 533.256 295.294C506.377 295.294 484.588 273.505 484.588 246.627C484.588 240.736 485.635 235.089 487.553 229.863H519.592C530.08 229.863 538.582 238.365 538.582 248.852V295.006Z" fill="#2D26CF"></path><path d="M532.444 276.778C559.892 276.778 582.143 254.517 582.143 227.056C582.143 199.595 559.892 177.333 532.444 177.333C504.996 177.333 482.745 199.595 482.745 227.056C482.745 254.517 504.996 276.778 532.444 276.778Z" fill="white"></path><path d="M591.801 227.404C591.801 253.644 570.529 274.916 544.289 274.916C518.049 274.916 496.777 253.644 496.777 227.404C496.777 201.164 518.049 179.892 544.289 179.892C570.529 179.892 591.801 201.164 591.801 227.404Z" stroke="white" stroke-width="1.22254"></path><path d="M522.41 255.511C521.012 255.513 519.657 255.025 518.581 254.132L504.329 242.326C502.648 240.964 501.828 238.804 502.181 236.67C502.534 234.535 504.007 232.755 506.037 232.009C508.067 231.263 510.341 231.665 511.992 233.063L521.772 241.165L552.341 206.678C554.543 204.194 558.342 203.967 560.825 206.17C563.308 208.374 563.536 212.175 561.333 214.659L526.911 253.489C525.771 254.778 524.131 255.515 522.41 255.511Z" fill="#71BEB5"></path><path d="M395.611 391.395C395.362 390.953 395.022 390.577 394.616 390.298C394.22 390.026 393.791 389.815 393.34 389.671C393.091 389.589 392.79 389.504 392.447 389.406C392.171 389.323 391.87 389.246 391.405 389.14C390.923 389.031 390.45 388.882 389.99 388.694C389.765 388.596 389.566 388.441 389.41 388.242C389.283 388.065 389.22 387.844 389.233 387.621C389.233 387.586 389.233 387.554 389.233 387.52C389.243 387.331 389.305 387.15 389.41 386.999C389.597 386.757 389.842 386.573 390.119 386.468C390.575 386.303 391.056 386.23 391.537 386.25C391.909 386.25 392.281 386.302 392.641 386.404C392.88 386.476 393.104 386.593 393.305 386.749C393.432 386.847 393.541 386.97 393.626 387.111L394.166 388.003L395.839 386.853L395.3 385.96C395.081 385.596 394.8 385.279 394.471 385.025C394.084 384.724 393.649 384.499 393.188 384.359C393.009 384.305 392.827 384.26 392.643 384.226V382H390.654V384.181C390.255 384.235 389.863 384.331 389.482 384.468C388.861 384.696 388.31 385.101 387.888 385.639L387.861 385.674C387.478 386.193 387.26 386.83 387.239 387.49C387.197 388.218 387.401 388.938 387.813 389.52L387.846 389.565C388.227 390.062 388.722 390.446 389.283 390.678C389.84 390.903 390.412 391.08 390.994 391.209C391.42 391.31 391.691 391.379 391.935 391.454H391.962C392.278 391.539 392.544 391.616 392.775 391.69C393.045 391.775 393.302 391.9 393.539 392.062C393.68 392.162 393.799 392.295 393.887 392.45C393.977 392.64 394.02 392.853 394.011 393.066C394.011 393.082 394.011 393.098 394.011 393.114C394.02 393.372 393.951 393.626 393.815 393.839C393.617 394.133 393.342 394.358 393.024 394.484C392.541 394.682 392.026 394.772 391.509 394.75H391.447C390.887 394.768 390.331 394.642 389.825 394.383C389.576 394.239 389.362 394.033 389.201 393.783L388.634 392.909L387 394.12L387.567 394.994C387.913 395.53 388.375 395.969 388.913 396.275L388.94 396.288C389.48 396.567 390.059 396.751 390.654 396.832V399H392.643V396.785C393.021 396.714 393.391 396.602 393.748 396.45C394.419 396.177 395.001 395.702 395.424 395.082C395.761 394.547 395.958 393.925 395.994 393.282C396.03 392.638 395.904 391.996 395.628 391.422L395.611 391.395Z" fill="#5982BE"></path><defs><linearGradient id="paint0_linear" x1="549.039" y1="426.544" x2="549.039" y2="384.438" gradientUnits="userSpaceOnUse"><stop stop-color="#E0E7FD"></stop><stop offset="1" stop-color="#DFE7FD"></stop></linearGradient><linearGradient id="paint1_linear" x1="407.117" y1="123.348" x2="407.117" y2="81.2417" gradientUnits="userSpaceOnUse"><stop stop-color="#E0E7FD"></stop><stop offset="1" stop-color="#DFE7FD"></stop></linearGradient><linearGradient id="paint2_linear" x1="300.274" y1="125.572" x2="331.287" y2="125.572" gradientUnits="userSpaceOnUse"><stop stop-color="#514975"></stop><stop offset="0.98" stop-color="#6C6491"></stop></linearGradient><linearGradient id="paint3_linear" x1="71.7314" y1="222.585" x2="132.71" y2="222.585" gradientUnits="userSpaceOnUse"><stop stop-color="#514975"></stop><stop offset="0.98" stop-color="#6C6491"></stop></linearGradient><linearGradient id="paint4_linear" x1="270.784" y1="439.98" x2="270.784" y2="349.667" gradientUnits="userSpaceOnUse"><stop stop-color="#74C0B8"></stop><stop offset="1" stop-color="#4EA399"></stop></linearGradient><linearGradient id="paint5_linear" x1="372.132" y1="360.093" x2="372.132" y2="381.61" gradientUnits="userSpaceOnUse"><stop stop-color="#514975"></stop><stop offset="0.98" stop-color="#6C6491"></stop></linearGradient><linearGradient id="paint6_linear" x1="440.716" y1="231.521" x2="440.716" y2="493.369" gradientUnits="userSpaceOnUse"><stop stop-color="#F3FAFC"></stop><stop offset="1" stop-color="#DDE5FC"></stop></linearGradient></defs></svg> 