<svg xmlns="http://www.w3.org/2000/svg" xmlns:xlink="http://www.w3.org/1999/xlink" width="2499.98" height="1663.98" viewBox="0 0 2499.98 1663.98"><defs><style>.cls-1{fill:#fff;}.cls-2{fill:url(#Áåçûìÿííûé_ãðàäèåíò_4);}.cls-3{fill:#0df3ff;}.cls-4{fill:#00c3d8;}.cls-5{fill:#d7d4ff;}.cls-6{fill:#6737c2;}.cls-7{fill:#00cfff;}.cls-8{fill:#6a50ea;}.cls-9{fill:#8f6dff;}.cls-10{fill:#ff2e57;}.cls-11{fill:#fbc922;}.cls-12{fill:#6737c1;}.cls-13{fill:#bc2650;}.cls-14{fill:#ffa800;}.cls-15{fill:#0981f3;}.cls-16{fill:#1f1440;}.cls-17{fill:#fdabac;}.cls-18{fill:#fd9193;}.cls-19{fill:#03cdfd;}.cls-20{fill:#ffadae;}.cls-21{fill:#231f3f;}.cls-22{fill:#0680f1;}.cls-23{fill:#2c2c75;}.cls-24{fill:#5752e3;}.cls-25{fill:#514b66;}.cls-26{fill:#452b96;}.cls-27{fill:#a494ff;}.cls-28{fill:#3d238c;}.cls-29{fill:#bdb0ff;}.cls-30{fill:#ff9000;}.cls-31{fill:#ac1548;}.cls-32{fill:#00a4d7;}</style><linearGradient id="Áåçûìÿííûé_ãðàäèåíò_4" x1="-2785.58" y1="1669.52" x2="-3918.92" y2="255.49" gradientTransform="matrix(-1, 0, 0, 1, -2056.79, 0)" gradientUnits="userSpaceOnUse"><stop offset="0" stop-color="#fff"/><stop offset="1" stop-color="#e8e5ff"/></linearGradient></defs><g id="Layer_2" data-name="Layer 2"><g id="_ëîé_1" data-name="‘ëîé_1"><rect class="cls-1" width="2499.98" height="1663.98"/><path class="cls-2" d="M1995.84,1487.11q20.61-40.48,41.24-81c104.79-205.73,232.16-383,221-624.73C2247.79,558.69,2147.92,342,1962.45,212,1749.13,62.45,1421.21,37,1210,205.61c-89.61,71.55-149.08,175.52-232.85,253.63C882,547.91,758.06,590.69,635.56,626.31,549.15,651.44,463,681.52,387.94,731.21c-272.43,180.4-181.45,486.86-112.88,749.57Z"/><rect class="cls-3" x="1223.58" y="413.47" width="132.25" height="355.89" transform="translate(-128.62 629.59) rotate(-26.18)"/><path class="cls-4" d="M1166.11,465.75l22-10.84,55.5-27.28,22-10.84,7.25,14.75,132.1,268.75,8.25,16.79-20.9,10.27L1334.07,756l-20.36,10-8.42-17.13-58.86-119.76-60-122.1-13-26.54-7.26-14.76ZM1137.62,456l16.65,33.86,13,26.54,60,122.1,58.86,119.76L1304,794.53l39.44-19.4,58.34-28.68,40-19.65-17.65-35.9-132.1-268.75-16.64-33.84-41.15,20.22-55.5,27.28L1137.62,456Z"/><circle class="cls-4" cx="1289.82" cy="591.64" r="67.56" transform="translate(406.31 1702.08) rotate(-76.13)"/><path class="cls-4" d="M1304,794.53l39.45-19.39a26.62,26.62,0,0,0-2.32-16.16c-7.06-14.35-25.77-19.58-41.84-11.68a35.29,35.29,0,0,0-13.1,11Z"/><path class="cls-4" d="M1401.79,746.47l40-19.67-17.65-35.9a35,35,0,0,0-17.46,3.61c-16.06,7.9-23.35,25.91-16.3,40.26A26.65,26.65,0,0,0,1401.79,746.47Z"/><path class="cls-4" d="M1171.34,486.24c16.05-7.89,23.36-25.9,16.3-40.26a26.17,26.17,0,0,0-8.88-10.17L1137.61,456l16.65,33.86A35.24,35.24,0,0,0,1171.34,486.24Z"/><path class="cls-4" d="M1278.73,433.45a35.09,35.09,0,0,0,13.32-11.29L1275.4,388.3l-41.15,20.23a26.24,26.24,0,0,0,2.63,13.25C1243.94,436.13,1262.67,441.35,1278.73,433.45Z"/><path class="cls-3" d="M1320.45,607.72c9.72-4.79,15.84-15.53,13.25-28.82a4.75,4.75,0,0,1,2.51-5.23l4.23-2.07,2.09-1a4.67,4.67,0,0,0,2.3-5.92,2.54,2.54,0,0,0-.16-.38,4.68,4.68,0,0,0-6.28-2.14l-5.36,2.62a4.73,4.73,0,0,1-6.1-1.79,45.87,45.87,0,0,0-10.36-11.58,4.68,4.68,0,0,0-6.19.52l-.83.85a4.68,4.68,0,0,0,.4,6.9,40.08,40.08,0,0,1,7.52,7.86,4.68,4.68,0,0,1-1.78,6.93l-22.34,11a4.68,4.68,0,0,1-5-.6c-10.42-8.62-19.75-12.35-30.09-7.26a22.74,22.74,0,0,0-12.69,16.74,28.81,28.81,0,0,0,.17,10.57,4.74,4.74,0,0,1-2.51,5.2l-5.92,2.91a4.69,4.69,0,0,0-2.32,5.92,2.59,2.59,0,0,0,.17.38,4.56,4.56,0,0,0,6.1,2.09l5-2.47a4.75,4.75,0,0,1,6.07,1.75,38.92,38.92,0,0,0,7.44,8.68,4.69,4.69,0,0,0,6.53-.33l.77-.8a4.72,4.72,0,0,0-.38-6.78,36.3,36.3,0,0,1-4.69-4.92,4.7,4.7,0,0,1,0-5.83,4.43,4.43,0,0,1,1.61-1.31l19-9.32c1.85.23,3.25.38,5.09.6C1299.21,610.38,1309.14,613.27,1320.45,607.72Zm-55.77-8.22c-4.84,2.4-9.3-4-5.3-7.65a12.72,12.72,0,0,1,2.87-2,12.51,12.51,0,0,1,3.56-1.18c5.3-.89,7.58,6.52,2.76,8.89Zm43.48-2.45c-4.63-.41-5.61-6.83-1.45-8.88l8.3-4.09a4.72,4.72,0,0,1,6,6.85,13.45,13.45,0,0,1-5.35,4.66A13.91,13.91,0,0,1,1308.16,597.05Z"/><polygon class="cls-3" points="1056.66 673.89 986.3 642.8 932.85 763.77 1258.39 907.62 1271.86 877.14 1298.11 817.69 1311.84 786.63 1056.66 673.89"/><path class="cls-4" d="M946.88,758.34l9.93-22.46,25-56.56,9.93-22.48,15,6.64,45.57,20.15,126.11,55.71,102.21,45.16,17.13,7.57-9.42,21.31-26.26,59.46L1253,893.58l-17.48-7.71L961.93,765l-15-6.64ZM918.81,769.2l34.51,15.24,273.56,120.9,36.94,16.31,17.77-40.21L1307.85,822l18-40.79L1289.27,765l-102.21-45.16L1061,664.16,1015.38,644l-34.52-15.24-18.53,42-25,56.56L918.81,769.2Z"/><path class="cls-4" d="M1184.38,802.61a67.56,67.56,0,1,0-89.11,34.49A67.57,67.57,0,0,0,1184.38,802.61Z"/><path class="cls-4" d="M1263.82,921.65l17.76-40.21a26.58,26.58,0,0,0-12.16-10.89c-14.63-6.46-32.32,1.56-39.56,17.93a35.2,35.2,0,0,0-3,16.85Z"/><path class="cls-4" d="M1307.85,822l18-40.79L1289.28,765a35,35,0,0,0-11.06,14c-7.23,16.37-1.24,34.85,13.38,41.32A26.65,26.65,0,0,0,1307.85,822Z"/><path class="cls-4" d="M964.07,770.67c7.22-16.35,1.25-34.85-13.38-41.32a26.1,26.1,0,0,0-13.34-2.08l-18.53,41.94,34.5,15.24A35.33,35.33,0,0,0,964.07,770.67Z"/><path class="cls-4" d="M1012.43,661.22a35.14,35.14,0,0,0,3-17.21l-34.51-15.24-18.53,41.94a26.24,26.24,0,0,0,10.52,8.46C987.49,685.63,1005.2,677.59,1012.43,661.22Z"/><path class="cls-3" d="M1128.54,819.07l.06-1.11a4.71,4.71,0,0,0-4.62-5,35.16,35.16,0,0,1-6.78-.76,4.72,4.72,0,0,1-3.33-6.52l8.54-19.3c1.54-1,2.73-1.8,4.28-2.8,15.1,0,24.57-4.17,29.66-15.68a24.55,24.55,0,0,0,1.55-15.25,27.31,27.31,0,0,0-9.9-15.35,4.78,4.78,0,0,1-1.43-5.64l1.9-4.3.94-2.13a4.65,4.65,0,0,0,.09-3.62,4.71,4.71,0,0,0-8.69-.17l-2.41,5.44a4.76,4.76,0,0,1-5.82,2.56.78.78,0,0,1-.14,0,45.8,45.8,0,0,0-15.25-2.18,4.7,4.7,0,0,0-4.41,4.37l-.08,1.19a4.66,4.66,0,0,0,4.73,5,41.52,41.52,0,0,1,10.81,1.18,4.7,4.7,0,0,1,3.1,6.47l-10.07,22.77a4.65,4.65,0,0,1-4.24,2.8c-13.53.08-23.06,3.22-27.73,13.78-4.56,10.31-1.44,21.33,8,28.95a4.76,4.76,0,0,1,1.41,5.61l-2.67,6a4.67,4.67,0,0,0-.07,3.61,4.72,4.72,0,0,0,2.48,2.59,4.55,4.55,0,0,0,6-2.33l2.26-5.09a4.74,4.74,0,0,1,5.78-2.57,39.77,39.77,0,0,0,11.27,1.87A4.71,4.71,0,0,0,1128.54,819.07Zm4.75-57.29,3.73-8.45a4.72,4.72,0,0,1,9,1.38,13.37,13.37,0,0,1-1.12,7,13.71,13.71,0,0,1-4.8,5.94C1136.3,770.32,1131.4,766,1133.29,761.78ZM1099.38,795a12.85,12.85,0,0,1,1-3.34,12.64,12.64,0,0,1,2-3.18c3.5-4.09,10,.12,7.83,5l-1.74,4C1106.19,802.42,1098.66,800.37,1099.38,795Z"/><rect class="cls-3" x="1094.88" y="462.2" width="132.26" height="355.9" transform="matrix(0.69, -0.72, 0.72, 0.69, -105.69, 1031.57)"/><path class="cls-4" d="M1002.05,564l77-79.88L1320,716.34l-77,79.88L1002.05,564Zm-30.09.55,271.52,261.81,106.57-110.53L1078.54,454,972,564.51Z"/><circle class="cls-4" cx="1161.19" cy="640.32" r="67.56" transform="translate(219.56 1573.97) rotate(-73.63)"/><path class="cls-4" d="M1243.48,826.32,1274,794.68a26.54,26.54,0,0,0-7.68-14.41c-11.51-11.1-30.88-9.66-43.31,3.23a35.06,35.06,0,0,0-8.58,14.8Z"/><path class="cls-4" d="M1319.11,747.89l30.94-32.1L1321.26,688a35,35,0,0,0-15.2,9.34c-12.42,12.88-13.16,32.3-1.65,43.4A26.6,26.6,0,0,0,1319.11,747.89Z"/><path class="cls-4" d="M1014,581.45c12.41-12.87,13.16-32.3,1.65-43.4a26.21,26.21,0,0,0-11.81-6.55l-31.83,33,27.16,26.19A35.43,35.43,0,0,0,1014,581.45Z"/><path class="cls-4" d="M1097,495.31a35.09,35.09,0,0,0,8.68-15.14L1078.54,454l-31.83,33a26.05,26.05,0,0,0,7,11.56C1065.19,509.65,1084.58,508.2,1097,495.31Z"/><path class="cls-3" d="M1195.45,645c7.52-7.81,9.62-20,2.68-31.61a4.76,4.76,0,0,1,.59-5.77l3.27-3.39,1.61-1.67a4.71,4.71,0,0,0-6.78-6.54l-4.13,4.29a4.75,4.75,0,0,1-6.35.4,46,46,0,0,0-13.68-7.38,4.66,4.66,0,0,0-5.64,2.58l-.49,1.09a4.67,4.67,0,0,0,2.72,6.36,40.63,40.63,0,0,1,9.73,4.83,4.69,4.69,0,0,1,.69,7.13l-17.28,17.92a4.68,4.68,0,0,1-5,1.17c-12.74-4.57-22.76-4.91-30.77,3.4-7.83,8.12-8.69,19.53-2.48,29.93a4.76,4.76,0,0,1-.6,5.75l-4.58,4.75a4.7,4.7,0,0,0,.12,6.65,4.54,4.54,0,0,0,6.44-.12l3.87-4a4.74,4.74,0,0,1,6.31-.41,39.86,39.86,0,0,0,10,5.63,4.7,4.7,0,0,0,6-2.54l.44-1a4.7,4.7,0,0,0-2.64-6.25,34.41,34.41,0,0,1-6.09-3,4.7,4.7,0,0,1-.89-7.26l14.65-15.2,5-1.16C1176.38,654.76,1186.7,654.1,1195.45,645Zm-55.22,11.23c-3.75,3.89-10.11-.63-7.59-5.41a12.31,12.31,0,0,1,2-2.81,13,13,0,0,1,2.94-2.32c4.68-2.63,9.34,3.56,5.62,7.42Zm46.59-21a13.78,13.78,0,0,1-6.54,3.92c-4.5,1.18-7.61-4.52-4.38-7.86l6.42-6.67a4.72,4.72,0,0,1,8,4.41A13.47,13.47,0,0,1,1186.82,635.26Z"/><path class="cls-5" d="M1877,613.13s11.91-30.85,8.78-51.33-8.49-26.68-18.63-29.7-17.78,12.64-15.77,23.77S1859,585.48,1877,613.13Z"/><path class="cls-5" d="M1898.35,595.42s29.53-14.9,40.93-32.2,11.59-25.49,6.09-34.52-21.67-2.54-27.63,7.06S1903.55,562.85,1898.35,595.42Z"/><path class="cls-5" d="M1855.32,645.21s3.46-36.92-6.15-58.06-17.29-26.21-29.15-26.38-15.34,19.06-9.78,30.45S1827.5,620.85,1855.32,645.21Z"/><path class="cls-5" d="M1837.33,655s-11.53-35.25-28.77-50.82-26.29-17.15-37.24-12.59-6.48,23.59,3.16,31.83S1802.11,643.71,1837.33,655Z"/><path class="cls-5" d="M1836.1,669.74s-19.28-11.34-33.28-11.5-18.73,2.73-21.86,9.17,6.48,13.24,14.12,13.12S1815.68,678.69,1836.1,669.74Z"/><path class="cls-5" d="M1886.71,619.63s23-23.82,42.83-29.62,27.78-3.55,34.79,4.36-4,21.46-14.9,24.33S1919.36,624.27,1886.71,619.63Z"/><path class="cls-5" d="M1866.78,652.83s32-18.71,55.24-18.91,31,4.62,36.21,15.3-10.81,21.94-23.48,21.71S1900.6,667.78,1866.78,652.83Z"/><path class="cls-5" d="M1865.52,673.27s36.81-4.42,58.2,4.64,26.64,16.6,27.12,28.45-18.65,15.83-30.18,10.57S1890.59,700.45,1865.52,673.27Z"/><path class="cls-5" d="M1852.65,680.61s18.41,12.69,24.46,25.32,5.42,18.14.91,23.69-14.74-.29-17.86-7.27S1853.14,702.9,1852.65,680.61Z"/><path class="cls-5" d="M1906.18,584.16c-1.63,2.57-4,6.26-7.1,10.89-4.35,6.56-10,15-16.72,24.91l-2.6,3.85L1879,625l-.93,1.38c-5.27,7.77-11,16.25-17.2,25.29l-1.33,2-.75,1.1h0l-.47.69c-2.94,4.31-6,8.74-9.06,13.25l-.49.72,0,.08-.83,1.2-.95,1.4-.21.31c-32.19,47-71,103.27-101.49,146.93l-1.55,2.22c-22.13,31.73-39.59,56.46-46.42,65.55l-2.34-2.07c6.65-8.86,23.54-32.78,45-63.58l1.56-2.23c30.55-43.81,70-100.87,102.53-148.43l.69-1,1-1.49.45-.67.18-.27,1.19-1.72,8.43-12.33,2-3c6.39-9.37,12.37-18.15,17.79-26.15l2.87-4.23c8.92-13.18,16.11-23.91,20.85-31.14,1.57-2.41,2.87-4.42,3.88-6S1907.27,582.44,1906.18,584.16Z"/><path class="cls-5" d="M1894.48,617.57c-4,2.7-8.81,3.78-12.86,6.39-1.69,1.1-3.44-1.5-1.75-2.6,4.06-2.61,8.85-3.7,12.86-6.4a1.57,1.57,0,0,1,1.75,2.61Z"/><path class="cls-5" d="M1877.69,604.71q.64,10.08,1.28,20.16a1.57,1.57,0,0,1-3.13.18q-.64-10.08-1.28-20.14a1.57,1.57,0,0,1,3.13-.2Z"/><path class="cls-5" d="M1856.19,639.92c0,4,.71,9.31,3,12.63,1.16,1.65-1.44,3.4-2.6,1.75-2.62-3.75-3.58-9.69-3.55-14.18,0-2,3.13-2.22,3.12-.2Z"/><path class="cls-5" d="M1873.7,653.59a50.64,50.64,0,0,1-7,.7c-1.38.1-6,.06-6.55.8-1.27,1.57-3.61-.51-2.35-2.07s4.36-1.5,6.14-1.66c2.86-.26,5.89-.14,8.71-.74,2-.41,3,2.55,1,3Z"/><path class="cls-5" d="M1832.93,649a81.19,81.19,0,0,1,9,8.7c2.45,2.89,4,6.51,6.8,9.14,1.46,1.39-.61,3.75-2.07,2.36-2.47-2.36-4.07-5.38-6.05-8.12-2.69-3.69-6.31-6.75-9.74-9.73-1.53-1.32.54-3.67,2.07-2.35Z"/><path class="cls-5" d="M1871.18,677c-4.31-2.2-9.61-2.24-14.12-3.38a54.64,54.64,0,0,0-10.14-1.2c-2.1-.12-1.46-3.28.56-3.07,8,.82,17.87,1.17,25.11,4.85a1.57,1.57,0,0,1-1.41,2.8Z"/><path class="cls-5" d="M1831.94,667.46c5.24-.08,10.47.33,15.71,0a1.57,1.57,0,0,1,.2,3.13c-5.24.27-10.47-.13-15.71-.06-2,0-2.22-3.1-.2-3.12Z"/><path class="cls-5" d="M1853.89,686.13c-.18-3.1-2-6.24-3.53-8.85A28.64,28.64,0,0,0,1845,670a1.57,1.57,0,0,1,2.07-2.35,32.28,32.28,0,0,1,6.4,8.66c1.63,2.92,3.41,6.21,3.6,9.61a1.57,1.57,0,0,1-3.13.2Z"/><path class="cls-5" d="M1915.56,819.39s23.46-5,34.64-15.07,12.82-15.76,10.62-23.11-14.74-5.77-20.69-.12S1925.2,797.49,1915.56,819.39Z"/><path class="cls-5" d="M1934.79,825.3s20.78,12,35.81,12,20.07-3.11,23.37-10-7.07-14.16-15.27-14S1956.62,815.5,1934.79,825.3Z"/><path class="cls-5" d="M1887.47,819s23.78-12.58,32.79-26.82,9-20.91,4.42-28.17-17.66-1.73-22.36,6.17S1891.2,792.41,1887.47,819Z"/><path class="cls-5" d="M1874.39,811.94s16.81-21,19.41-37.65,0-22.78-7.17-27.6-16.89,5.44-18.05,14.56S1867.23,786.09,1874.39,811.94Z"/><path class="cls-5" d="M1865,817.06s-.78-16.2-6.25-24.76-9.11-10.28-14.25-9.62-5.47,9.2-2.35,13.79S1851.4,808.23,1865,817.06Z"/><path class="cls-5" d="M1915.47,827.86s23.58,4.45,35,14.21,13.2,15.44,11.18,22.85-14.59,6.12-20.68.63S1925.64,849.51,1915.47,827.86Z"/><path class="cls-5" d="M1887.4,829s24.08,12,33.44,26,9.53,20.68,5.11,28.06-17.62,2.16-22.51-5.63S1891.78,855.42,1887.4,829Z"/><path class="cls-5" d="M1874.5,836.32s17.32,20.58,20.32,37.16.51,22.77-6.48,27.77-17-5-18.41-14.12S1868,862.33,1874.5,836.32Z"/><path class="cls-5" d="M1864.93,831.43s-.38,16.21-5.64,24.91-8.85,10.49-14,10-5.69-9.06-2.69-13.72S1851.6,840.59,1864.93,831.43Z"/><path class="cls-5" d="M1944.74,825.57c-2.21,0-5.4,0-9.43,0-5.71,0-13.1-.12-21.77-.24l-3.36-.05h0l-1,0h0l-1.2,0h0c-6.8-.1-14.24-.23-22.17-.38l-1.71,0h0l-1,0h-.62l-11.65-.23h-.69l-1.06,0-1.23,0h-.28c-22.7-.47-47.91-1-72.41-1.65-18-.45-35.56-.92-51.51-1.37l-3.73-.1,1.56-2.23,3.72.11c16.54.47,34.78,1,53.35,1.41,23.4.58,47.31,1.12,69,1.57l.88,0,1.31,0,.59,0h0a1.61,1.61,0,0,1,.22,0h0l1.5,0h0l10.83.21,2.61.05h0c8.23.16,15.92.29,22.93.4l3.71.06c11.52.17,20.9.27,27.17.28h0c2.08,0,3.83,0,5.19,0S1946.2,825.55,1944.74,825.57Z"/><path class="cls-5" d="M1919.81,831.75c-3.23-1.36-5.79-3.84-9-5.26a1.13,1.13,0,0,1,.88-2.09c3.2,1.42,5.77,3.89,9,5.25a1.14,1.14,0,0,1-.89,2.1Z"/><path class="cls-5" d="M1920.94,816.45l-11.72,8.79a1.14,1.14,0,0,1-1.36-1.83l11.72-8.78a1.14,1.14,0,0,1,1.36,1.82Z"/><path class="cls-5" d="M1891,817.4c-2.41,1.57-5.37,4.13-6.46,6.86a1.13,1.13,0,0,1-2.09-.88c1.23-3.08,4.45-6,7.19-7.79,1.22-.8,2.59,1,1.36,1.81Z"/><path class="cls-5" d="M1889.7,833.46a36.81,36.81,0,0,1-3.2-4c-.61-.8-2.4-3.59-3.09-3.66-1.46-.14-1.13-2.39.33-2.25s2.63,2,3.44,3.07a52.7,52.7,0,0,0,3.91,5c1,1-.36,2.83-1.39,1.8Z"/><path class="cls-5" d="M1876.27,806.9a58.39,58.39,0,0,1-1.71,8.91c-.78,2.64-2.34,5.05-2.84,7.76-.27,1.44-2.52,1.12-2.26-.32.45-2.43,1.65-4.6,2.52-6.9a45,45,0,0,0,2-9.77,1.14,1.14,0,0,1,2.25.32Z"/><path class="cls-5" d="M1874.51,841.23c-.39-3.5-2.46-6.73-3.56-9.92a39.73,39.73,0,0,0-3.31-6.62c-.76-1.33,1.41-2.19,2.09-.89,2.67,5.16,6.39,11.31,7,17.17a1.14,1.14,0,0,1-2.26.26Z"/><path class="cls-5" d="M1864.68,813.63c2.13,3.15,4,6.49,6.21,9.55a1.14,1.14,0,0,1-1.82,1.37c-2.25-3.07-4.08-6.4-6.21-9.55-.81-1.21,1-2.58,1.82-1.37Z"/><path class="cls-5" d="M1862.07,834.37c1.81-1.33,3-3.69,4-5.66a20.73,20.73,0,0,0,2.26-6.17,1.14,1.14,0,0,1,2.25.32,23.48,23.48,0,0,1-2.71,7.33c-1.12,2.15-2.41,4.53-4.4,6a1.14,1.14,0,0,1-1.37-1.82Z"/><path class="cls-5" d="M524.2,660.4s-7.44-35-.59-56.3,13.63-27,25-28.52,16.81,16.54,12.76,28.07S548.13,634,524.2,660.4Z"/><path class="cls-5" d="M504.46,637.84s-29-21-38.19-41.37-8-29.19-.59-37.9,23.56,1,28.29,12.27S504.48,602.19,504.46,637.84Z"/><path class="cls-5" d="M541.88,698.35s2.62-40,16.5-60.93,22.94-25,35.63-23.17,13.11,23,5.22,34.18S575.74,677.11,541.88,698.35Z"/><path class="cls-5" d="M559.42,711.85s18.33-35.65,39.39-49.32,31-13.81,41.91-7.07,2.88,26.29-8.81,33.43S598.94,705.85,559.42,711.85Z"/><path class="cls-5" d="M558.2,727.82s22.52-8.8,37.49-6.58,19.53,6.13,21.77,13.52-9.18,13-17.32,11.6S578.47,740.88,558.2,727.82Z"/><path class="cls-5" d="M512.74,665.68s-20.42-29.36-40.65-38.95-29-8.54-37.89-1.29S434.76,649,446,654,477.09,665,512.74,665.68Z"/><path class="cls-5" d="M528.34,704.53s-31-25.45-55.73-29.64-33.94-.38-41.27,10.14,7.78,25.27,21.35,27.19S489.68,714.7,528.34,704.53Z"/><path class="cls-5" d="M526.19,726.56s-38.54-11-62.92-5S432,734.73,429.45,747.29s17.2,20.09,30.41,16.44S494.78,751.28,526.19,726.56Z"/><path class="cls-5" d="M538.67,736.6s-21.82,10.4-30.44,22.84-8.89,18.44-5,25.13,15.79,2.22,20.31-4.7S534.33,760.31,538.67,736.6Z"/><path class="cls-5" d="M498,624.48c1.3,3,3.23,7.37,5.72,12.84,3.52,7.75,8.14,17.76,13.59,29.46l2.11,4.55c.22.46.43.92.65,1.39s.51,1.08.76,1.63c4.29,9.19,9,19.23,14,29.93.36.77.72,1.53,1.08,2.31.21.43.41.87.61,1.3h0l.38.83q3.62,7.65,7.42,15.69l.39.85,0,.09c.22.48.45.95.68,1.43s.51,1.1.78,1.66c.06.12.12.24.17.36,26.32,55.69,58.17,122.4,83.21,174.21.43.88.85,1.75,1.27,2.63,18.19,37.66,32.61,67,38.34,77.92l2.86-1.81c-5.58-10.6-19.52-39-37.2-75.58-.43-.87-.85-1.75-1.28-2.64-25.12-52-57.44-119.65-84.07-176-.18-.4-.37-.79-.56-1.19l-.84-1.77c-.12-.27-.25-.53-.37-.8l-.15-.32c-.33-.67-.64-1.36-1-2q-3.51-7.47-6.89-14.6l-1.65-3.52c-5.22-11.09-10.1-21.5-14.51-31l-2.35-5c-7.26-15.59-13.11-28.28-16.92-36.8-1.28-2.85-2.32-5.22-3.12-7.08S497.16,622.47,498,624.48Z"/><path class="cls-5" d="M504.81,662.14c3.82,3.58,8.75,5.55,12.62,9,1.63,1.46,3.94-1,2.32-2.47-3.88-3.49-8.82-5.47-12.63-9a1.69,1.69,0,0,0-2.31,2.47Z"/><path class="cls-5" d="M524.93,651.29q-2.41,10.65-4.82,21.3a1.7,1.7,0,0,0,3.31.73q2.42-10.64,4.81-21.28a1.69,1.69,0,0,0-3.3-.75Z"/><path class="cls-5" d="M541.85,692.56c-.65,4.23-2.35,9.81-5.39,13-1.52,1.57,1,3.88,2.47,2.31,3.44-3.55,5.48-9.73,6.23-14.52.33-2.15-3-2.91-3.31-.75Z"/><path class="cls-5" d="M520.82,704.15a57.61,57.61,0,0,0,7.32,2c1.47.34,6.35,1.08,6.86,2,1.08,1.9,3.94.08,2.86-1.81s-4.39-2.33-6.27-2.81c-3-.77-6.26-1.16-9.17-2.28-2-.77-3.63,2.21-1.6,3Z"/><path class="cls-5" d="M565.13,706.24A88.61,88.61,0,0,0,554.05,714c-3.11,2.68-5.43,6.27-8.83,8.61-1.79,1.23,0,4.1,1.81,2.86,3-2.09,5.26-5.05,7.85-7.62,3.49-3.48,7.89-6.13,12.06-8.73,1.85-1.15,0-4-1.81-2.86Z"/><path class="cls-5" d="M519.51,729.54c5-1.6,10.64-.75,15.66-1.19a59,59,0,0,1,11,.46c2.27.22,2.12-3.26-.07-3.38-8.64-.49-19.27-1.81-27.63.88a1.69,1.69,0,0,0,1,3.23Z"/><path class="cls-5" d="M563,726.1c-5.58-1-11.23-1.44-16.78-2.63-2.13-.46-2.88,2.84-.74,3.3,5.54,1.2,11.19,1.66,16.77,2.63,2.14.38,2.9-2.92.75-3.3Z"/><path class="cls-5" d="M536.41,742.28c.71-3.28,3.2-6.32,5.28-8.85a30.9,30.9,0,0,1,7-6.83,1.69,1.69,0,0,0-1.81-2.86c-3.25,2-5.94,5.17-8.3,8.15s-4.7,6-5.49,9.64c-.46,2.13,2.84,2.88,3.31.75Z"/><path class="cls-5" d="M447.77,874s-24.18-9.38-34.39-22-11-19-7.38-26.49,16.72-3.63,22.1,3.41S441.24,849,447.77,874Z"/><path class="cls-5" d="M426.24,877S402,886.25,386,883.73,365.06,877,362.72,869s10-13.9,18.69-12.29S404.61,862.81,426.24,877Z"/><path class="cls-5" d="M477.83,878.35s-23.23-17.49-30.41-34.23-6.06-23.87.1-30.83,19.15,1.17,22.82,10.41S478.4,849.35,477.83,878.35Z"/><path class="cls-5" d="M493,873.07s-14.35-25.29-14.27-43.51,3.94-24.3,12.36-28.24,17.1,8.7,16.79,18.64S505.06,846.7,493,873.07Z"/><path class="cls-5" d="M502.21,880.15s3.6-17.16,10.9-25.36S524.59,845.38,530,847s4.26,10.75.15,15.12S518.18,873.05,502.21,880.15Z"/><path class="cls-5" d="M446.42,883s-25.92.72-39.79,9.19-16.73,14.22-15.84,22.47,14.53,9,22,4.21S431.87,904.42,446.42,883Z"/><path class="cls-5" d="M476.2,889s-27.76,8.67-40.14,22-13.72,20.45-10.25,29.08,18.43,5.32,25-2.15S467,916.52,476.2,889Z"/><path class="cls-5" d="M488.72,899.08s-22,19-28.05,36.19-4.45,24.22,2.17,30.76,19-2.46,22.06-11.93S491.23,928,488.72,899.08Z"/><path class="cls-5" d="M499.77,895.5s-2.37,17.37,1.76,27.55,7.65,12.72,13.25,13,7.62-8.7,5.22-14.2S512.43,907.55,499.77,895.5Z"/><path class="cls-5" d="M415.57,875.59c2.35.41,5.76,1,10.07,1.63,6.1.95,14,2.12,23.27,3.47l3.6.52h0l1.08.16h0l1.29.19h0c7.27,1.05,15.24,2.18,23.73,3.38l1.83.25h0l1,.15.67.09,12.47,1.75h0c.21,0,.44.06.66.09h.07l1.13.16,1.32.19h0l.29,0c24.31,3.38,51.32,7.08,77.58,10.62,19.26,2.6,38.12,5.11,55.22,7.35l4,.53c-.43-.87-.85-1.75-1.28-2.64l-4-.52c-17.74-2.33-37.29-4.93-57.19-7.62-25.08-3.39-50.7-6.9-73.87-10.12l-.95-.13-1.41-.2-.63-.08h0l-.23,0h0l-1.61-.23h0L482.15,883l-2.79-.4h0c-8.81-1.24-17.05-2.41-24.54-3.49l-4-.58c-12.33-1.78-22.35-3.28-29.05-4.35h0c-2.23-.36-4.09-.67-5.54-.93S414,875.32,415.57,875.59Z"/><path class="cls-5" d="M441.13,886.45c3.68-.9,6.84-3.11,10.49-4.07A1.23,1.23,0,0,0,451,880c-3.66,1-6.82,3.17-10.5,4.07a1.23,1.23,0,0,0,.59,2.39Z"/><path class="cls-5" d="M442.54,869.93l11,11.39a1.23,1.23,0,0,0,1.76-1.72l-11-11.38a1.23,1.23,0,0,0-1.76,1.71Z"/><path class="cls-5" d="M474.31,876.06c2.3,2.08,5,5.33,5.72,8.42a1.23,1.23,0,0,0,2.38-.58c-.79-3.5-3.72-7.19-6.34-9.55-1.17-1.05-2.94.65-1.76,1.71Z"/><path class="cls-5" d="M473,893.43a39.53,39.53,0,0,0,4.09-3.67c.79-.75,3.18-3.42,3.92-3.38,1.58.1,1.62-2.36,0-2.45s-3.16,1.73-4.2,2.68a58.3,58.3,0,0,1-5,4.66c-1.27.92-.1,3.08,1.18,2.16Z"/><path class="cls-5" d="M491.86,867.37a64.26,64.26,0,0,0,.29,9.81c.39,3,1.65,5.78,1.72,8.77,0,1.58,2.49,1.63,2.45,0-.06-2.67-1-5.2-1.5-7.79a48.08,48.08,0,0,1-.5-10.79,1.23,1.23,0,0,0-2.46,0Z"/><path class="cls-5" d="M487.87,904.32c1-3.67,3.77-6.76,5.5-10a42.85,42.85,0,0,1,4.66-6.5c1-1.29-1.13-2.58-2.08-1.3-3.73,5-8.76,11-10.45,17.11a1.23,1.23,0,0,0,2.37.67Z"/><path class="cls-5" d="M503.08,876.54c-2.81,3-5.34,6.25-8.27,9.14-1.12,1.11.58,2.88,1.71,1.76,2.93-2.89,5.46-6.13,8.26-9.13,1.08-1.15-.62-2.93-1.7-1.77Z"/><path class="cls-5" d="M502.31,899.13c-1.7-1.74-2.56-4.46-3.27-6.72a22.57,22.57,0,0,1-1.35-7,1.23,1.23,0,0,0-2.46,0,25.11,25.11,0,0,0,1.65,8.29c.82,2.48,1.79,5.25,3.67,7.16a1.23,1.23,0,0,0,1.76-1.71Z"/><path class="cls-1" d="M2227.72,929.92a69,69,0,1,1-90.31,36.87A69,69,0,0,1,2227.72,929.92Z"/><path class="cls-1" d="M2074,940.16a136.89,136.89,0,0,0-8.78,76.24,138.34,138.34,0,0,0,25,58.75,136.12,136.12,0,0,0,57.43,45.32,137.69,137.69,0,0,0,160.61-213.33,136.27,136.27,0,0,0-53.88-40.66C2184.41,837.08,2103.44,870.14,2074,940.16Zm226.32-28.31a128.61,128.61,0,0,1-149.18,200.21,126.63,126.63,0,0,1-45.73-32.59,128.52,128.52,0,0,1-23-135.78c27.48-65.38,103-96.26,168.39-68.8A127.5,127.5,0,0,1,2300.34,911.85Z"/><path class="cls-1" d="M1836.9,94.41a93.65,93.65,0,1,1-122.62,50.05A93.64,93.64,0,0,1,1836.9,94.41Z"/><path class="cls-1" d="M1986.67,161.79l-12.85-3.29A174.69,174.69,0,0,1,1733,341.7a172,172,0,0,1-62.09-44.24,175.21,175.21,0,0,1-42.7-89.55,174.52,174.52,0,0,1,32.23-131.24l-12.76-3.5a186.91,186.91,0,0,0,2.55,218.42,184.67,184.67,0,0,0,78,61.53,186.94,186.94,0,0,0,258.52-191.33Z"/><path class="cls-6" d="M433.66,431.87a2,2,0,0,1-1.34-1.82q-.06-2.34,0-4.68a2,2,0,1,1,3.94,0c0,1.52,0,3,0,4.54a2,2,0,0,1-1.93,2A1.93,1.93,0,0,1,433.66,431.87Z"/><path class="cls-6" d="M434.05,418a2,2,0,0,1-1.34-2c.25-3.09.61-6.23,1.07-9.32a2,2,0,1,1,3.91.58c-.45,3-.8,6.06-1,9.06a2,2,0,0,1-2.13,1.81A2.46,2.46,0,0,1,434.05,418Zm2.71-18.3a2,2,0,0,1-1.3-2.28c.65-3,1.42-6.08,2.27-9.1a2,2,0,0,1,3.8,1.07c-.83,2.94-1.57,5.92-2.21,8.86a2,2,0,0,1-2.34,1.51A.79.79,0,0,1,436.76,399.72Zm5-17.79a2,2,0,0,1-1.24-2.53c1-2.92,2.16-5.86,3.36-8.74a2,2,0,0,1,3.64,1.52c-1.17,2.81-2.27,5.68-3.27,8.53A2,2,0,0,1,441.79,381.93Zm7.13-17.07a1.57,1.57,0,0,1-.23-.09,2,2,0,0,1-.91-2.64c1.36-2.79,2.83-5.58,4.36-8.3a2,2,0,1,1,3.44,1.94c-1.49,2.65-2.92,5.37-4.26,8.09A2,2,0,0,1,448.92,364.86ZM458,348.74a1.72,1.72,0,0,1-.43-.21,2,2,0,0,1-.6-2.72c1.68-2.62,3.46-5.23,5.29-7.74a2,2,0,1,1,3.19,2.32c-1.78,2.45-3.52,5-5.16,7.55A2,2,0,0,1,458,348.74Zm10.88-15a2,2,0,0,1-.9-3.12c2-2.41,4-4.79,6.15-7.07a2,2,0,1,1,2.9,2.67c-2,2.23-4.07,4.55-6,6.9A1.94,1.94,0,0,1,468.88,333.77Zm12.55-13.6a2,2,0,0,1-.73-3.29c2.25-2.17,4.6-4.28,7-6.29a2,2,0,1,1,2.55,3c-2.3,1.95-4.58,4-6.78,6.13A2,2,0,0,1,481.43,320.17ZM583,353.22c-.53-.18-1.06-.37-1.58-.58a42.65,42.65,0,0,1-5-2.3,2,2,0,1,1,1.89-3.46,38.79,38.79,0,0,0,4.52,2.08,34.38,34.38,0,0,0,3.6,1.18,2,2,0,1,1-1,3.81C584.6,353.74,583.78,353.49,583,353.22Zm11.47,1.92a2,2,0,0,1,.64-3.85,35.29,35.29,0,0,0,8.69-1,2,2,0,0,1,.93,3.84,39.65,39.65,0,0,1-9.65,1.11A2.05,2.05,0,0,1,594.44,355.14Zm-25.22-10a2.15,2.15,0,0,1-.71-.42,38.33,38.33,0,0,1-6.24-7.46,2,2,0,0,1,3.32-2.13,35,35,0,0,0,5.6,6.69,2,2,0,0,1-2,3.32Zm43,5.67a2,2,0,0,1-.31-3.61,32.23,32.23,0,0,0,7-5.1,2,2,0,1,1,2.73,2.85,35.8,35.8,0,0,1-7.9,5.73A2,2,0,0,1,612.23,350.79Zm-53-21a2,2,0,0,1-1.23-1.2,48.78,48.78,0,0,1-2.29-9.35,2,2,0,1,1,3.91-.57,44.58,44.58,0,0,0,2.1,8.59,2,2,0,0,1-1.2,2.52A1.91,1.91,0,0,1,559.25,329.75Zm-63.7-21.55a1.89,1.89,0,0,1-.95-.69,2,2,0,0,1,.41-2.76c2.51-1.87,5.1-3.67,7.71-5.35a2,2,0,1,1,2.14,3.31c-2.53,1.64-5.05,3.39-7.5,5.21A2,2,0,0,1,495.55,308.2Zm129.84,29.92A1.76,1.76,0,0,1,625,338a2,2,0,0,1-.7-2.7,33.45,33.45,0,0,0,2.82-6.12c.21-.63.4-1.25.56-1.88a2,2,0,1,1,3.82,1c-.19.71-.4,1.43-.64,2.14a37.27,37.27,0,0,1-3.16,6.86A2,2,0,0,1,625.39,338.12ZM511.1,298.17a2,2,0,0,1-.32-3.6c2.74-1.52,5.56-2.95,8.37-4.25a2,2,0,0,1,1.66,3.58c-2.72,1.26-5.46,2.65-8.12,4.13A2,2,0,0,1,511.1,298.17Zm45.44,13.39a2,2,0,0,1-1.34-1.93,60.14,60.14,0,0,1,1-9.5,2,2,0,1,1,3.87.73,58.39,58.39,0,0,0-1,8.88,2,2,0,0,1-2,1.92A2.13,2.13,0,0,1,556.54,311.56Zm-28.65-21.15a2,2,0,0,1-.07-3.72c2.94-1.1,5.94-2.1,8.92-3a2,2,0,0,1,1.1,3.79c-2.89.84-5.79,1.81-8.63,2.87A1.94,1.94,0,0,1,527.89,290.41Zm102,30a2,2,0,0,1-1.34-1.72,26.6,26.6,0,0,0-2.06-8.31,2,2,0,1,1,3.64-1.54,30.39,30.39,0,0,1,2.35,9.55,2,2,0,0,1-1.81,2.12A1.83,1.83,0,0,1,629.84,320.46Zm-69.89-27a2,2,0,0,1-1.23-2.53,58.66,58.66,0,0,1,3.89-8.73,1.4,1.4,0,0,1,.16-.26,1.93,1.93,0,0,1-.15-.68,2,2,0,0,1,1.89-2.05c3.12-.12,6.29-.11,9.41,0a2,2,0,0,1-.17,3.94c-2.47-.11-5-.14-7.44-.08a2,2,0,0,1-.24,1,55,55,0,0,0-3.63,8.16A2,2,0,0,1,560,293.44Zm-14.32-8.17a2,2,0,0,1,.23-3.81c3.07-.63,6.19-1.14,9.27-1.52a2,2,0,0,1,.48,3.92c-3,.37-6,.86-9,1.47A2.09,2.09,0,0,1,545.63,285.27Zm77.26,18.34A2,2,0,0,1,622,303a42.14,42.14,0,0,0-6.17-6.31,2,2,0,1,1,2.52-3,45.7,45.7,0,0,1,6.75,6.9,2,2,0,0,1-2.18,3.09Zm-40.48-19.76a2,2,0,0,1,.88-3.83c3.09.4,6.21.92,9.27,1.57a2,2,0,1,1-.81,3.86c-3-.62-6-1.13-9-1.51A2.34,2.34,0,0,1,582.41,283.85Zm26.41,7.9a2.52,2.52,0,0,1-.34-.15,54.15,54.15,0,0,0-8.1-3.76,2,2,0,0,1-1.17-2.53,1.93,1.93,0,0,1,2.53-1.17,57.57,57.57,0,0,1,8.69,4,2,2,0,0,1-1.61,3.58ZM568.51,277.1a2.2,2.2,0,0,1-.46-.23,2,2,0,0,1-.55-2.73c1.73-2.62,3.57-5.18,5.48-7.63a2,2,0,1,1,3.11,2.42c-1.84,2.37-3.63,4.85-5.3,7.39A2,2,0,0,1,568.51,277.1Zm11.35-14.58a1.85,1.85,0,0,1-.7-.41,2,2,0,0,1-.13-2.79c2.11-2.31,4.33-4.56,6.6-6.69a2,2,0,0,1,2.7,2.89c-2.2,2-4.35,4.23-6.38,6.46A2,2,0,0,1,579.86,262.52Zm13.48-12.62a1.93,1.93,0,0,1-.91-.64,2,2,0,0,1,.31-2.77c2.43-2,5-3.83,7.57-5.59a2,2,0,1,1,2.22,3.26c-2.51,1.71-5,3.53-7.33,5.41A2,2,0,0,1,593.34,249.9Zm15.28-10.42a1.94,1.94,0,0,1-1.08-.88,2,2,0,0,1,.72-2.69c2.69-1.55,5.48-3,8.29-4.4a2,2,0,1,1,1.73,3.55c-2.73,1.33-5.44,2.76-8,4.26A1.93,1.93,0,0,1,608.62,239.48Zm16.61-8.08a2,2,0,0,1-1.2-1.13,2,2,0,0,1,1.09-2.57c2.86-1.16,5.81-2.25,8.79-3.24a2,2,0,1,1,1.24,3.74c-2.89,1-5.77,2-8.55,3.15A2,2,0,0,1,625.23,231.4Zm17.52-5.85a2,2,0,0,1,.12-3.78c3-.79,6-1.52,9.09-2.16a2,2,0,1,1,.81,3.87c-3,.62-6,1.33-8.88,2.1A1.92,1.92,0,0,1,642.75,225.55Zm18.08-3.78a2,2,0,0,1,.33-3.82c3-.46,6.15-.86,9.26-1.18a2,2,0,1,1,.41,3.92c-3.05.32-6.1.71-9.07,1.16A1.93,1.93,0,0,1,660.83,221.77Zm180.24,54.51a1.93,1.93,0,0,1-.7-.41c-2.25-2.06-4.57-4.09-6.9-6a2,2,0,1,1,2.53-3c2.38,2,4.74,4.05,7,6.15a2,2,0,0,1-2,3.32Zm-161.86-56.4a2,2,0,0,1,.52-3.84c3.07-.17,6.21-.27,9.33-.3a2,2,0,1,1,0,3.94c-3.06,0-6.14.13-9.15.3A2,2,0,0,1,679.21,219.88Zm147.67,44.53a1.74,1.74,0,0,1-.57-.3c-2.41-1.84-4.9-3.66-7.4-5.4a2,2,0,1,1,2.25-3.24c2.55,1.78,5.09,3.63,7.55,5.5a2,2,0,0,1-1.83,3.44ZM697.7,219.69a2,2,0,0,1,.7-3.84c3.08.1,6.21.27,9.32.5a2,2,0,0,1-.29,3.94c-3.06-.23-6.14-.4-9.16-.5A2.13,2.13,0,0,1,697.7,219.69Zm114,34.17a1.65,1.65,0,0,1-.42-.21c-2.57-1.62-5.22-3.2-7.86-4.71a2,2,0,0,1,2-3.43c2.7,1.54,5.39,3.15,8,4.81a2,2,0,0,1-1.68,3.54Zm-95.53-32.8a2,2,0,0,1,.86-3.83c3.06.35,6.18.77,9.25,1.25a2,2,0,0,1-.6,3.9c-3-.47-6.09-.88-9.1-1.23A1.36,1.36,0,0,1,716.16,221.06Zm79.45,23.64a1.59,1.59,0,0,1-.27-.12c-2.69-1.38-5.47-2.73-8.25-4a2,2,0,1,1,1.65-3.58c2.83,1.29,5.65,2.66,8.4,4.07a2,2,0,0,1-1.53,3.63Zm-61.14-20.81a2,2,0,0,1,1-3.81c3,.6,6.11,1.25,9.13,2a2,2,0,1,1-.9,3.84c-3-.69-6-1.34-9-1.92ZM778.79,237l-.11-.05c-1.56-.63-3.13-1.25-4.71-1.84-1.27-.49-2.56-1-3.86-1.43a2,2,0,1,1,1.34-3.71c1.31.47,2.62.95,3.92,1.45,1.61.61,3.21,1.23,4.8,1.88a2,2,0,0,1-1.38,3.7Zm-26.29-8.88a2,2,0,0,1,1.15-3.78c3,.82,6,1.71,9,2.64a2,2,0,0,1,1.29,2.48,2,2,0,0,1-2.47,1.29c-2.9-.92-5.86-1.79-8.81-2.6Z"/><path class="cls-6" d="M851.2,286.19a2,2,0,0,1-.79-.51c-1-1.1-2.12-2.18-3.19-3.26a2,2,0,1,1,2.79-2.79c1.09,1.1,2.18,2.2,3.25,3.32a2,2,0,0,1-2.06,3.24Z"/><polygon class="cls-6" points="844.45 289.68 848.63 301.95 966.72 280.85 844.45 289.68"/><polygon class="cls-6" points="840.31 245.7 847.13 263.77 966.72 280.85 840.31 245.7"/><polygon class="cls-7" points="840.31 245.7 860.33 223.97 966.72 280.85 840.31 245.7"/><polygon class="cls-7" points="827.36 260.94 798.22 293.91 966.72 280.85 827.36 260.94"/><path class="cls-1" d="M1041.5,1006.08a8.83,8.83,0,1,0-7.31-10.14A8.83,8.83,0,0,0,1041.5,1006.08Z"/><path class="cls-8" d="M1035.3,1254.66c-2-2.77-4.59-5-6.78-7.56-1.84-2.19-3.06-4.83-4.53-7.26a1,1,0,0,1,1.73-1c1.71,2.84,3.11,5.84,5.48,8.22a57.11,57.11,0,0,1,5.82,6.61c.76,1-1,2-1.72,1Z"/><path class="cls-9" d="M1026.36,1244.86s43-16.57-7.95-59.73c0,0-14.53-9.92-24-7.82C991.46,1178,980.12,1252.4,1026.36,1244.86Z"/><path class="cls-8" d="M1060.21,1305.17s29.12-36.42,55.58,15.49a40.33,40.33,0,0,1,1.91,32.27l-.16.45a5.89,5.89,0,0,0-.33,1.18c-.24,1.49-.72,5.31.32,7.9a1.82,1.82,0,0,1-1.47,2.48c-11.91,1.55-55.41,4.93-67.84-26.6C1037.92,1312.21,1060.21,1305.17,1060.21,1305.17Z"/><path class="cls-8" d="M1013.29,1283.06s15.82-16.08-5.16-25.63c-19.47-8.87-26.93,6.53-37.56,6a1.42,1.42,0,0,0-1.44,2C973.66,1275.1,992,1309.61,1013.29,1283.06Z"/><path class="cls-10" d="M1047.26,1273.78s-13.86-53.8,81.13-46.26C1128.39,1227.52,1129.73,1308.74,1047.26,1273.78Z"/><path class="cls-8" d="M1037.61,1024.54l-8.08,354.58a6.5,6.5,0,1,0,13,.1c-.44-48.61-2.94-341.94.06-354.68Z"/><path class="cls-11" d="M1042.83,1025.8c1.65.32,2.63.43,2.63.43s54.28,9,36.18-74.62a50.17,50.17,0,0,1,1.3-10.65c.22-.83.46-1.62.72-2.42,0,0-62.32,1.25-72.89,42C1001.78,1015.2,1033.32,1024,1042.83,1025.8Z"/><path class="cls-12" d="M1114.82,986.28s-59.56,12.06-54.28,55.79C1060.54,1042.07,1086.17,1077.5,1114.82,986.28Z"/><path class="cls-8" d="M1032.28,1301.15c-2.44-5.67-5.13-11.38-9.89-15.5-4.2-3.64-9.59-4.57-13.82-7.92-1-.79.41-2.2,1.41-1.41,2.39,1.89,5.42,2.5,8.08,3.89a30.79,30.79,0,0,1,6.89,5.07c4.22,4.1,6.77,9.54,9.06,14.87.5,1.16-1.22,2.18-1.73,1Z"/><path class="cls-8" d="M1063.7,1307.94c-4.65-6.47-20-9.28-25.83-3.32-.9.92-2.31-.49-1.41-1.41,6.86-7,23.57-3.79,29,3.72.75,1-1,2-1.72,1Z"/><path class="cls-8" d="M1032.94,1338.3c-11.27-13.36-29.87-12.51-39.39,2.31-.69,1.08-2.42.08-1.72-1,10.12-15.76,30.41-17.08,42.52-2.71.83,1-.58,2.39-1.41,1.41Z"/><path class="cls-8" d="M1049.48,1187.93c-2.19,1.25-4.66,2.13-6.59,3.79-1.58,1.38-2.87,3-4.72,4a1,1,0,0,1-1-1.73c2-1.15,3.37-3,5.22-4.43s4.08-2.21,6.08-3.36a1,1,0,0,1,1,1.73Z"/><path class="cls-8" d="M1036.71,1169.93c-5.14-6-12.42-8.51-19.66-11-1.21-.43-.69-2.36.53-1.93,7.55,2.66,15.19,5.3,20.54,11.57.83,1-.57,2.39-1.41,1.41Z"/><path class="cls-8" d="M1087.68,1077.1c-15.22,9.75-42,17.53-48.55,36.6-.41,1.21-2.34.69-1.92-.53,6.75-19.72,33.77-27.74,49.46-37.79,1.09-.69,2.09,1,1,1.72Z"/><path class="cls-8" d="M1036.71,1100.63c-2.2-7.67-9.61-16.32-14.8-22.08-4.87-5.4-10.58-11.65-16.91-15.27a1,1,0,0,1,1-1.72c7.26,4.15,13.78,11.32,19.11,17.64,5,5.94,11.36,13.4,13.51,20.9a1,1,0,0,1-1.92.53Z"/><path class="cls-12" d="M1066.07,1041.42c-4.16,2.87-7.78,6.5-12.44,8.59-3.94,1.78-8.62,4.41-12.93,5.08-1.26.2-1.8-1.73-.53-1.92,3.91-.61,9-3.38,12.58-5,4.61-2,8.2-5.64,12.31-8.48,1.06-.74,2.06,1,1,1.72Z"/><path class="cls-9" d="M915.3,1111.68s24.14-18.77,57.63-13.6a83.14,83.14,0,0,1,23.8,7.58s-21.11-36.2-53.27-23.13c-2,.8-3.8,1.62-5.51,2.42C911.76,1097.52,915.3,1111.68,915.3,1111.68Z"/><path class="cls-7" d="M1084.67,1079c20.37-3.88,37.49-2.34,51.44,1.65,31.22,8.92,46.55,30,46.55,30s18.11-24.12-29.65-50.26c-26.46-14.48-44.59-7.19-55.48,2.18A54.25,54.25,0,0,0,1084.67,1079Z"/><path class="cls-8" d="M918.8,1203.09s8-12.8,24.12-24.67c17.67-13,45.12-24.92,82.44-17.55,0,0-15-14.56-34.5-21.45-9.9-3.52-21-5.06-31.84-1.65C926.84,1147.8,919.81,1178,918.8,1203.09Z"/><path class="cls-9" d="M1045.46,1189.57c100.52-17.09,150.78,41.21,150.78,41.21a72,72,0,0,0-.19-17.06c-.17-1.35-.37-2.67-.61-4-4.31-23.4-22.31-41.68-45.38-47.47-50.46-12.65-78.85,1.46-93,13.64C1048.82,1183.1,1045.46,1189.57,1045.46,1189.57Z"/><path class="cls-7" d="M1047.87,1118s28.32.64,48.08-4.64,28.82,17.34-15.66,58.8c0,0-3.1-9.8-43.73-20.55S998.11,1103.74,1047.87,1118Z"/><path class="cls-11" d="M966.77,1371.76s1.62.3,4.31.59c12.86,1.33,50.08,2.45,49.22-29.9a11.4,11.4,0,0,0-7.58-10.41,50.42,50.42,0,0,0-12.91-2.58,64.67,64.67,0,0,0-22,2.34C951.68,1339,982.58,1360.45,966.77,1371.76Z"/><path class="cls-9" d="M1107.91,1348.13a2.72,2.72,0,0,0,4.84-1.52c.54-6.62-1-12.57-4.39-18.59-4.74-8.55-11-18.87-20.29-23.3-5.27-2.53-7.55-1.77-11.65,1.86-3.9,3.46-8.3,2.53-12.31,5.3-4.47,3.1-3.57,10.56-.67,14.4,3.73,4.93,11.36,4.28,16.89,5.57C1089,1333.84,1101.53,1340.54,1107.91,1348.13Z"/><path class="cls-13" d="M1115.56,1242.17a1.91,1.91,0,0,1,2.89,2.4,123.11,123.11,0,0,1-7.59,11.5,45.84,45.84,0,0,1-20.87,16.56c-5.58,2.17-23.62,7.12-23.23-3.67.35-10.07,13.35-11.22,20.46-13.43C1097,1252.49,1107.35,1248.94,1115.56,1242.17Z"/><path class="cls-9" d="M979.62,1267.41a2.64,2.64,0,0,1,3.66-1.43c7.39,3.44,20.09,3.48,21.09,14,.71,7.38-7.79,6.13-12.38,5.06S976,1278,979.62,1267.41Z"/><path class="cls-1" d="M1092.39,1122c-8,1.61-15.88,3.75-24.13,3.33-8.81-.44-17.46-1.78-26.18-2.66-5-.5-21.89-2.76-16.24,7.57,3.76,6.86,18.28,9.24,25.3,11,4.79,1.19,9.61,1.93,14.3,3.5,3.57,1.19,6.82,3.28,10.35,4.46.83-5,6.71-11.33,10.82-14.05C1088.44,1133.89,1101.3,1125.59,1092.39,1122Z"/><path class="cls-9" d="M1096.39,1007.17c-4,9.16-7,19-12.32,27.68-2,3.22-7.72,9.85-11.45,4.76-2.89-4,.28-9.62,2.8-12.81C1079.64,1021.46,1084.47,1015.87,1096.39,1007.17Z"/><path class="cls-14" d="M1042.83,1025.8c1.91-8-10.17-13.07-14.83-16.93-6.5-5.43-9.43-12.83-7.24-21.32,4.42-17.15,21.67-26.76,35.7-35.3,8.62-3.52,15.14-6,21.9-9.32,1.36-.67,2.93-1.31,4.58-2,.22-.83.46-1.62.72-2.42,0,0-62.32,1.25-72.89,42C1001.78,1015.2,1033.32,1024,1042.83,1025.8Z"/><path class="cls-15" d="M1084.67,1079c20.37-3.88,37.49-2.34,51.44,1.65a21.75,21.75,0,0,1,2.36-1.46c2.13-1.12,4.66-.88,7.17-.51,5.61.83,11.15,2.93,16.77,4.29,1.94.48,6.68,2.18,6.15-1.22-.3-1.68-5-5-6.29-6.07-11.15-8.44-25.23-11.69-38.94-13.13-6.26-.64-12.54-1.46-19-1.17a30,30,0,0,0-6.84,1.2A54.25,54.25,0,0,0,1084.67,1079Z"/><path class="cls-8" d="M949.36,1043.4c2.69.56,5.64.74,7.59,1.22,10.17,2.48,19.14,5.8,27.39,11.9a83,83,0,0,1,23.8,7.59S987,1027.9,954.87,1041C952.9,1041.77,951.06,1042.6,949.36,1043.4Z"/><path class="cls-8" d="M1045.46,1189.57c100.52-17.09,150.78,41.21,150.78,41.21a72,72,0,0,0-.19-17.06,99.4,99.4,0,0,0-13.57-10.31c-11.18-7.1-22.34-14.37-34.87-19.24-11.82-4.58-23.43-5.65-36-5.65-11,0-22.44.14-33.27,1.76-6.76,1-19.17,3.49-21.25-4.34C1048.82,1183.1,1045.46,1189.57,1045.46,1189.57Z"/><path class="cls-12" d="M942.92,1178.42c17.67-13,45.12-24.92,82.44-17.55,0,0-15-14.56-34.5-21.45a8.19,8.19,0,0,1,2.61,4.44c.83,4-2.29,4.93-5.8,6.15-7.22,2.5-14.88,2.1-22,4.82-7.35,2.74-10.87,8.57-16,14.06C947.74,1170.94,944.12,1174.85,942.92,1178.42Z"/><path class="cls-14" d="M966.77,1371.76s1.62.3,4.31.59a40.75,40.75,0,0,0,8.84-5.46c4.45-3.59,6.71-8.15,10.14-12.48,3-3.81,6.5-6.69,4.93-11.82-1.31-4.16-2.82-8.47,1.57-11.53a13.13,13.13,0,0,1,3.25-1.6,64.67,64.67,0,0,0-22,2.34C951.68,1339,982.58,1360.45,966.77,1371.76Z"/><path class="cls-8" d="M1054,1271.61c-2.37,1.2-4.46,2.86-6.81,4.1a39.38,39.38,0,0,0-7.56,4.54c-1,.83-2.39-.58-1.41-1.41a35.2,35.2,0,0,1,7.13-4.42c2.65-1.36,5-3.19,7.65-4.54,1.14-.58,2.15,1.14,1,1.73Z"/><polygon class="cls-9" points="978.56 1379.06 1013.2 1498.82 1063.68 1498.82 1074.32 1462 1074.88 1460.08 1098.32 1379.06 978.56 1379.06"/><path class="cls-12" d="M978.56,1379.06l34.64,119.76h50.48l10.64-36.82c-37-14.44-54.91-50.92-63.55-82.94Z"/><rect class="cls-16" x="978.56" y="1374.06" width="119.76" height="10"/><path class="cls-1" d="M1545.83,180a24,24,0,1,1-31.37,12.81A24,24,0,0,1,1545.83,180Z"/><circle class="cls-1" cx="1419.72" cy="183.88" r="23.96" transform="translate(706.98 1425.42) rotate(-67.52)"/><path class="cls-1" d="M1328,335a11.91,11.91,0,1,1-15.6,6.36A11.91,11.91,0,0,1,1328,335Z"/><path class="cls-1" d="M1492.44,183.59a47.45,47.45,0,0,0-3,26.49,47.93,47.93,0,0,0,8.67,20.4,47.21,47.21,0,0,0,20,15.75,47.84,47.84,0,0,0,55.8-74.11A47.41,47.41,0,0,0,1555.09,158,47.93,47.93,0,0,0,1492.44,183.59Zm78.62-9.84a44.68,44.68,0,0,1-51.83,69.56A44.08,44.08,0,0,1,1503.35,232a44.91,44.91,0,0,1-10.93-22.92,44.66,44.66,0,0,1,78.64-35.32Z"/><path class="cls-1" d="M1357.61,268.62a8.57,8.57,0,1,1-11.23,4.58A8.57,8.57,0,0,1,1357.61,268.62Z"/><path class="cls-1" d="M1323.35,263.53a33.24,33.24,0,0,0-2.14,18.57,33.61,33.61,0,0,0,6.08,14.32,33.11,33.11,0,0,0,14,11,33.55,33.55,0,0,0,39.13-52,33.13,33.13,0,0,0-13.13-9.9A33.6,33.6,0,0,0,1323.35,263.53Zm55.14-6.9a31.34,31.34,0,0,1-36.35,48.78,30.72,30.72,0,0,1-11.14-7.94,31.43,31.43,0,0,1-7.66-16.07,31,31,0,0,1,2.06-17,31.32,31.32,0,0,1,53.09-7.76Z"/><circle class="cls-1" cx="1471.09" cy="339.78" r="11.91" transform="translate(802.41 1693.45) rotate(-76.72)"/><path class="cls-1" d="M2034.24,462a24,24,0,1,1,12.81,31.37A24,24,0,0,1,2034.24,462Z"/><circle class="cls-1" cx="2038.09" cy="588.11" r="23.96" transform="translate(715.4 2246.47) rotate(-67.52)"/><path class="cls-1" d="M2189.16,679.84a11.92,11.92,0,1,1,6.37,15.6A11.91,11.91,0,0,1,2189.16,679.84Z"/><path class="cls-1" d="M2037.8,515.39a47.46,47.46,0,0,0,26.49,3.05,48,48,0,0,0,20.41-8.67,47.19,47.19,0,0,0,15.74-19.95,47.86,47.86,0,1,0-62.64,25.57ZM2028,436.77a44.68,44.68,0,0,1,69.55,51.83,44.08,44.08,0,0,1-11.32,15.88,44.92,44.92,0,0,1-22.91,10.93A44.65,44.65,0,0,1,2028,436.77Z"/><path class="cls-1" d="M2122.83,650.22a8.57,8.57,0,1,1,4.58,11.23A8.58,8.58,0,0,1,2122.83,650.22Z"/><path class="cls-1" d="M2117.74,684.48a33.27,33.27,0,0,0,18.58,2.14,33.63,33.63,0,0,0,14.31-6.08,33.11,33.11,0,0,0,11-14,33.54,33.54,0,0,0-52-39.13,33.15,33.15,0,0,0-9.91,13.13A33.6,33.6,0,0,0,2117.74,684.48Zm-6.9-55.14a31.34,31.34,0,0,1,48.78,36.35,30.72,30.72,0,0,1-7.94,11.14,31.43,31.43,0,0,1-16.07,7.66,31,31,0,0,1-17-2.06,31.32,31.32,0,0,1-7.76-53.09Z"/><circle class="cls-1" cx="2193.99" cy="536.74" r="11.91" transform="translate(1167.53 2548.72) rotate(-76.72)"/><path class="cls-17" d="M966.38,854.89S884.27,944,863.87,944c-5.62,0-13.07-4.62-20.94-11.34-3.63-3.1-9.85-12-16.36-21.84-8.46-12.79-17.39-27.11-21.67-32.08-.89-1-1.67-2-2.36-2.92-8.07-10.64-3.93-13.69-3.93-13.69l29.71-71.42.37.89,21.72,51.8h0l5.12,12.19,13.6,32.47,78.31-40.81Z"/><path class="cls-18" d="M856.52,853.7l-1,1.89-29,55.22c-8.46-12.79-17.39-27.11-21.67-32.08-.89-1-1.67-2-2.36-2.92,4.48-19.25,15.74-44.22,15.83-45.77.11-1.82,7.29-27.65,10.32-38.45l21.72,51.8h0Z"/><path class="cls-19" d="M804.35,883.86l59.79-27.26S825.72,735.05,779.4,735.67,804.35,883.86,804.35,883.86Z"/><path class="cls-20" d="M946.71,840.64,947,830l-.91-16.59a3.24,3.24,0,0,1,2.27-3.28h0a3.25,3.25,0,0,1,3.9,1.64l6.57,13.12,16.57-38.25a2.16,2.16,0,0,1,2.84-1.12h0a2.17,2.17,0,0,1,1.23,2.53l-6.68,25.43,11.36-23.74a2.7,2.7,0,0,1,3.5-1.31h0a2.69,2.69,0,0,1,1.47,3.35L980.72,816l13.78-22.78a2.32,2.32,0,0,1,3.69-.38l0,0a2.35,2.35,0,0,1,.45,2.56c-2.31,5.32-10.34,23.86-10.34,23.86l11.86-16a2.52,2.52,0,0,1,4.15.16h0a2.51,2.51,0,0,1,0,2.59L991,829.22l-7.94,14.42a19.43,19.43,0,0,1-8.43,8l-9.34,4.59-16,4.73Z"/><path class="cls-21" d="M741.25,681.87a49,49,0,0,0-3,16.08c0,5.4,1.44,10.92,5.44,14.46s9.82,4.75,15.45,4.8a75.18,75.18,0,0,0,17.07-2.32,75.81,75.81,0,0,1-17,3.73c-5.77.4-12.17-.17-17.3-4a18.46,18.46,0,0,1-5.71-7.43,29.1,29.1,0,0,1-2.17-9,53.71,53.71,0,0,1,1.84-18.11Z"/><path class="cls-21" d="M734.71,633.7a23.52,23.52,0,0,0-17.18,14.88,22.72,22.72,0,0,0,4.35,22c3.73,4.29,8.94,7.11,13.12,11a32.42,32.42,0,0,1,9.14,14.9c1.12,4,1.49,8.31,3.75,11.84,4,6.28,14.14,7.8,19.88,3,4.38-3.67,5.75-9.64,6.39-15.23a96.3,96.3,0,0,0-4.64-42c-2.38-6.9-5.76-13.82-11.67-18.32s-14.91-5.84-20.85-1.44Z"/><path class="cls-21" d="M738,675.25s-6.35,37.33,19,38.69L754,691.16Z"/><path class="cls-1" d="M793.18,749.14l-24.44-4.48-50.26,257.83,27.7,26.48,24-14.09S813.51,854.87,793.18,749.14Z"/><path class="cls-22" d="M793.18,749.14s31.5,138.77-23,279.83l-14.92-7.49S804.74,900.17,793.18,749.14Z"/><path class="cls-23" d="M643.69,1052.8s-27.05,97.29-18.42,194.21c0,0-68-32-214.92.68l-5.77,26.88s202.22,46,282.59,18a12.51,12.51,0,0,0,6.88-5.87l69.7-128.57Z"/><path class="cls-24" d="M620.18,1020s-46.42,68.66,178.9,185.32c0,0-22.68,56.7,8.71,254.13l27.92.3,43.36-264.5a9.47,9.47,0,0,0-1.06-6.14c-10.16-18.56-68-120.77-140.84-180.33a38.53,38.53,0,0,0-32.86-7.93Z"/><path class="cls-16" d="M410.35,1247.69l-30.52-6.56-4.64,21.58,9.1,7.52-11.39,3.15-13.75,64s36.57-13.47,45.43-62.79Z"/><path class="cls-16" d="M807.79,1459.48l-.44,34.06,20.23.27,5.14-11.36,4.86,11.49,60,.78s-18.64-36.17-64.56-34.91Z"/><path class="cls-17" d="M798.61,710.09l-8,40.57a5.17,5.17,0,0,1-7.62,3.52l-27.93-15.71,14.84-47.91Z"/><polygon class="cls-21" points="751.14 632.82 801 616.42 808.62 648.13 766.29 668.98 751.14 632.82"/><path class="cls-17" d="M845.15,658.18c0,.47-.09.93-.13,1.4a91.93,91.93,0,0,1-13.75,38.8,50.65,50.65,0,0,1-8,10.2c-8,7.33-27.3,10-37.76,6.49-9.37-3.16-16.75-10.7-21.28-19.26s-6.57-18.15-8-27.66c-8.1.7-15.88-6.93-15-14.74s6.26-12.6,17.84-9.94a6.85,6.85,0,0,0,1.1-.07c22.41-1.54,40.27-15.27,61.41-20.62,3.74-.93,14.61-4.84,17.56-2,1.28,1.21,2.1,3.5,2.77,5.07A42.1,42.1,0,0,1,845.05,637a74.2,74.2,0,0,1,.7,14C845.64,653.36,845.44,655.79,845.15,658.18Z"/><path class="cls-17" d="M845.5,640.83c-10.94,1.19-23.52-1.19-38.28-5.6a64.25,64.25,0,0,0-12-2.44c8.58-3.78,17.16-7.67,26.33-10,3.74-.93,14.61-4.84,17.56-2,1.28,1.21,2.1,3.5,2.77,5.07A42.1,42.1,0,0,1,845.05,637C845.26,638.25,845.41,639.53,845.5,640.83Z"/><path class="cls-1" d="M756.15,669.22c2.68,17.94,9,40.44,28.56,47,8.3,2.78,16.35,3.37,24.53.19,7-2.73,14.86-6.43,19.52-12.39.87-1.11-.81-2.57-1.68-1.45-4.29,5.48-11.57,9-18,11.54-8.31,3.33-16.57,2.69-24.92-.37-17.6-6.46-23.34-28.36-25.77-44.63-.21-1.38-2.46-1.27-2.25.12Z"/><path class="cls-18" d="M845.15,658.18c-16.7.94-50-.36-67.27-4.34-10.27-2.36-15.31-6.64-17.74-10.44,22.41-1.54,40.27-15.27,61.41-20.62,3.74-.93,14.61-4.84,17.56-2,1.28,1.21,2.1,3.5,2.77,5.07A42.1,42.1,0,0,1,845.05,637a74.2,74.2,0,0,1,.7,14C845.64,653.36,845.44,655.79,845.15,658.18Z"/><path class="cls-21" d="M829.62,609.72a1.45,1.45,0,1,0-.19-2.9,1.45,1.45,0,0,0,.19,2.9Z"/><path class="cls-1" d="M790.13,687.08,819,685.42a1.3,1.3,0,0,1,1.38,1.56c-1.1,4.66-5.41,17.52-19.3,16.76-14.47-.8-12.88-12.32-12.1-15.69A1.26,1.26,0,0,1,790.13,687.08Z"/><path class="cls-21" d="M728,641.3c0,.31.07.23.11.27s0,0,.08,0,.09-.09.14-.15a1.28,1.28,0,0,0,.17-.45,2.14,2.14,0,0,0-.1-1.18,5.18,5.18,0,0,0-2.65-2.49,16.56,16.56,0,0,0-4.71-1.46,40.41,40.41,0,0,0-5.37-.5,43.94,43.94,0,0,1,5.1-2.32,21.53,21.53,0,0,1,5.88-1.3,12.62,12.62,0,0,1,7.07,1.47,11.25,11.25,0,0,1,3.34,2.82,10.64,10.64,0,0,1,1.29,2,10.52,10.52,0,0,1,.51,1.12,5.93,5.93,0,0,1,.22.64,4.21,4.21,0,0,1,.2.93Z"/><path class="cls-21" d="M767.68,639.37a44.77,44.77,0,0,0-1.23,6.28,42.45,42.45,0,0,0-.38,6.57c.11,4.35.92,8.86,3.86,12.52a17.48,17.48,0,0,1-4.93-5.12,30.36,30.36,0,0,1-3.1-6.63,48.55,48.55,0,0,1-1.81-7.12,51.86,51.86,0,0,1-.83-7.48Z"/><path class="cls-23" d="M828.35,1459.78c-11.72-158.75-7.67-234.66-6.73-247.65l23.71-9.62a3.53,3.53,0,0,0,2.18-3.09,3.9,3.9,0,0,0-1.83-3.48l-18.42-11.46c-118.52-72.92-155-155.85-155.35-156.68l-6.68,2.7c1.48,3.48,37.63,85.93,158.41,160.25l12.15,7.56-19.1,7.74a3.5,3.5,0,0,0-2.16,2.94c-.07.7-6.6,74.27,6.4,250.49Z"/><path class="cls-21" d="M882.29,608.65c-10.27,21.53-22.57,30.72-38.43,32.4-10.78,1.15-23.18-1.18-37.73-5.48a63.69,63.69,0,0,0-11.82-2.39c-17-1.74-28.34,4.89-34.55,10.24h0a7.41,7.41,0,0,1-1.05.07c-5.1-1.17-9-.89-11.8.47l-11.1-9c4.37-74.56,55.63-44.19,55.63-44.19L805,570.68C848.62,515.17,899.49,572.56,882.29,608.65Z"/><path class="cls-21" d="M737.74,644.3a60.88,60.88,0,0,1-3.21-6.63,55.17,55.17,0,0,1-2.4-6.82,31.84,31.84,0,0,1-1.26-7.12,15.57,15.57,0,0,1,1-7,14.37,14.37,0,0,0,1.06,6.56,29.27,29.27,0,0,0,3,5.81,50.67,50.67,0,0,0,4,5.26,55.43,55.43,0,0,0,4.44,4.68Z"/><path class="cls-21" d="M761.73,638.48a53.09,53.09,0,0,1,20.46-5.36,37.69,37.69,0,0,1,20.63,4.69l2.3,1.36,1.92,1.21c1.31.77,2.67,1.49,4.06,2.16a59.85,59.85,0,0,0,8.72,3.33,64,64,0,0,0,18.55,2.76,58.93,58.93,0,0,0,9.36-.87,50.68,50.68,0,0,0,9-2.61,46.72,46.72,0,0,0,15.68-10.47c9-9.15,14.38-21.44,17.68-34-2.63,12.67-7.3,25.37-16.13,35.41a49.45,49.45,0,0,1-16,11.93,54.08,54.08,0,0,1-9.53,3.33,63.35,63.35,0,0,1-10,1.48A68.87,68.87,0,0,1,818.44,651a65.86,65.86,0,0,1-9.69-3.12q-2.37-1-4.68-2.17l-2.28-1.27-2-1a30.79,30.79,0,0,0-17.1-2.9,43.39,43.39,0,0,0-8.74,1.87,43.86,43.86,0,0,0-8.07,3.46l-.16.09a4.24,4.24,0,0,1-4.24-7.35Z"/><path class="cls-25" d="M861.68,560.9a33.46,33.46,0,0,1,15.53,17.87c2.82,7.68,2.48,16.18.41,24a37.88,37.88,0,0,1-5,11.19,33.36,33.36,0,0,1-4,4.74c-.76.71-1.47,1.47-2.26,2.13l-2.51,1.82c-6.83,4.81-15.18,6.7-23.27,7.4a102.39,102.39,0,0,1-24.37-1.29c-4-.74-8-1.42-11.93-2.45s-7.75-2-11.58-2.52l-2.87-.39c-1-.1-1.91-.09-2.87-.14a39.76,39.76,0,0,0-5.68.17,29.8,29.8,0,0,0-10.55,3.27c-6.48,3.47-10.9,9.95-13.26,17l-5.34-1.86c2.89-8,8.35-15.58,16.28-19.54a34.61,34.61,0,0,1,12.41-3.47,46.27,46.27,0,0,1,6.34,0c1,.09,2.11.12,3.14.25l3.08.51c4.1.71,8.09,1.94,11.86,2.94s7.71,1.9,11.58,2.75a100,100,0,0,0,23.57,1.94c7.79-.45,15.76-2,22.29-6.34l2.41-1.64c.76-.61,1.44-1.3,2.17-1.94a31.57,31.57,0,0,0,3.88-4.36,36.14,36.14,0,0,0,5-10.57c2.23-7.54,2.82-15.81.28-23.38A33.09,33.09,0,0,0,861.68,560.9Z"/><path class="cls-19" d="M784.93,766.32c0,37.84-48,243.41-48,243.41-62.21,21.27-109.85,23.48-141.78,5.15,0,0,4.06-26,13.34-62.22,8.39-32.74,21-73.89,38.77-111.88,26.46-56.66,64.25-106.3,116.21-110.58C763.44,730.2,784.93,728.48,784.93,766.32Z"/><path class="cls-22" d="M678.24,867.34l-69.78,85.32c8.39-32.74,21-73.89,38.77-111.88l20.66-4,95.76-65.94S798.76,820.78,678.24,867.34Z"/><polygon class="cls-17" points="633.25 797.52 585.25 833.24 556.68 1000.17 580.11 1003.44 623.14 857.03 666.25 843.45 633.25 797.52"/><path class="cls-19" d="M628.79,796.93l38,53.6S779,790,769.66,744.57,628.79,796.93,628.79,796.93Z"/><polygon class="cls-18" points="620.03 807.36 637.29 852.57 662.6 844.6 630.61 799.49 620.03 807.36"/><path class="cls-1" d="M666.31,854.06a3.54,3.54,0,0,0,2.15-.38c4.11-2.18,100.64-53.71,104.9-98.46l-7.08-.67c-1.59,16.68-19.44,38-51.62,61.55a464.13,464.13,0,0,1-46.78,29.8l-27.39-38.62-5.8,4.12,29.21,41.19A3.59,3.59,0,0,0,666.31,854.06Z"/><path class="cls-26" d="M559.67,1071.69a32.33,32.33,0,0,0,6.78-5.76,37.2,37.2,0,0,0,5.24-7.38,31.51,31.51,0,0,0,3.27-9.16,25.33,25.33,0,0,0-.33-11,22.73,22.73,0,0,0-5.8-10.16,25.92,25.92,0,0,0-4.34-3.53c-.77-.46-1.55-.88-2.33-1.31s-1.55-.71-2.33-1.07a42.93,42.93,0,0,0-4.69-1.56c-1.55-.39-3.08-.71-4.6-1a76.21,76.21,0,0,0-9.15-1c-6.19-.24-12.95.7-18.76,4.06a29,29,0,0,0-7.47,6.27,35.1,35.1,0,0,0-4.89,7.87,51.75,51.75,0,0,0-4,16.8,72.05,72.05,0,0,0,.61,16.62l1.58-.1a82.83,82.83,0,0,1,2.7-15.67,47.34,47.34,0,0,1,6.08-13.86,26.41,26.41,0,0,1,4.57-5.23,19,19,0,0,1,5.53-3.26c3.88-1.59,8.33-1.65,12.83-.88,1.12.15,2.28.55,3.4.79s2.26.78,3.38,1.14,2.13.92,3.14,1.41a25.9,25.9,0,0,1,2.75,1.63,20.89,20.89,0,0,1,4.16,3.39,14.38,14.38,0,0,1,2.56,3.54c1.41,2.64,1.91,6.93,1.48,11.74a134.87,134.87,0,0,1-2.63,15.65Z"/><path class="cls-16" d="M381.72,1118.54S461.57,1043.83,478,1021l106.11,77.59s-45.81,74.3-99.22,110.47C484.88,1209.06,420.48,1164.57,381.72,1118.54Z"/><path class="cls-10" d="M382,1104.56s79.85-74.71,96.27-97.54l106.11,77.59s-45.81,74.3-99.22,110.47C485.13,1195.08,420.73,1150.59,382,1104.56Z"/><path class="cls-16" d="M436.05,1067.55s72.48,73.67,108.66,71.13l-6.61,7.73S496.53,1142.2,436.05,1067.55Z"/><path class="cls-16" d="M481.69,1110.1c-5.71,6.65-12.13,10.51-14.33,8.62s.64-8.82,6.35-15.47,12.13-10.51,14.34-8.62S487.4,1103.45,481.69,1110.1Z"/><path class="cls-16" d="M382,1104.56s-7,6.32-.25,14,6.83-6.43,6.83-6.43Z"/><path class="cls-16" d="M584.35,1084.61s4.26,5-.25,14-6-4.38-6-4.38Z"/><path class="cls-20" d="M582,1041.1a3.25,3.25,0,0,1-2.28,3.28,3.33,3.33,0,0,1-1,.15,3.26,3.26,0,0,1-2.91-1.79l-6.57-13.11-4.13,9.52a7.25,7.25,0,0,1-7.19,4.34l-9.34-.72a6,6,0,0,1-4.38-2.48l-6.94-9.81a4.84,4.84,0,0,1-.24-5.23h0l8-14.42a19.33,19.33,0,0,1,8.42-8l9.34-9.32h16l2.57,20.35-.27,10.68Z"/><path class="cls-27" d="M1758.16,648.69l-16.43,53-75.7,244-9.37,30.23-37.59,121.19-2.74,8.79-121.91,393H1063c0-24.29-.28-50.65-.53-78.54-2.45-275.22-2.83-700.32,277-768.7,4.27-1.05,8.63-2,13-2.89Z"/><path class="cls-9" d="M1476.71,1498.82H1063c0-24.29-.27-50.65-.51-78.54,97.81-2.67,352-30.67,408.06-246.45C1527.09,956.41,1492.1,1343.41,1476.71,1498.82Z"/><path class="cls-8" d="M1758.16,648.69v850.13h-313c0-70.74-2.12-160.73.72-256C1453.78,977.61,1500,671.32,1737,624.22Z"/><path class="cls-8" d="M1485.41,774.87c-46.61,71.53-70.56,167.24-82.69,267.44H1133.29c12.12-100.19,36.08-195.91,82.68-267.44Z"/><path class="cls-28" d="M1240,806.32h227.13q8.5-16.38,18.27-31.45H1216c-46.6,71.53-70.56,167.25-82.68,267.44H1173C1184.19,953.7,1198.31,870.32,1240,806.32Z"/><rect class="cls-8" x="1180.3" y="1066.63" width="150.9" height="22.12"/><rect class="cls-9" x="1295.88" y="1135.19" width="86.81" height="45.92"/><rect class="cls-29" x="1355.71" y="499.93" width="385.08" height="148.76"/><rect class="cls-8" x="1666.67" y="499.93" width="91.5" height="201.73"/><path class="cls-9" d="M1430.19,537.48h-9.09L1394,611.14h9.65l7.4-21.08h29.3l3.7,10.53q1.45,4.17,3.7,10.55h9.65Zm-4.13,11.89,11.54,32.87h-23.89c1.56-4.42,2.92-8.26,4-11.53s2.29-6.53,3.42-9.79,2.5-7.12,4.06-11.55Z"/><path class="cls-9" d="M1440.23,581.32l-11.54-32.87a2.8,2.8,0,0,0-2.63-1.87h-.82a2.81,2.81,0,0,0-2.63,1.87q-2.34,6.64-4.06,11.54l-3.42,9.81c-1.13,3.26-2.49,7.1-4.05,11.52a2.8,2.8,0,0,0,2.63,3.72h23.89a2.81,2.81,0,0,0,2.27-1.18A2.78,2.78,0,0,0,1440.23,581.32Zm-22.58-1.87q1.53-4.34,2.74-7.82l3.43-9.8,1.82-5.22,8,22.84Zm22.58,1.87-11.54-32.87a2.8,2.8,0,0,0-2.63-1.87h-.82a2.81,2.81,0,0,0-2.63,1.87q-2.34,6.64-4.06,11.54l-3.42,9.81c-1.13,3.26-2.49,7.1-4.05,11.52a2.8,2.8,0,0,0,2.63,3.72h23.89a2.81,2.81,0,0,0,2.27-1.18A2.78,2.78,0,0,0,1440.23,581.32Zm-22.58-1.87q1.53-4.34,2.74-7.82l3.43-9.8,1.82-5.22,8,22.84ZM1460,610.17l-27.16-73.65a2.81,2.81,0,0,0-2.62-1.83h-9.09a2.8,2.8,0,0,0-2.61,1.83l-27.15,73.65a2.77,2.77,0,0,0,2.61,3.75h9.65a2.78,2.78,0,0,0,2.63-1.86l6.75-19.22h25.35q1.8,5.14,3,8.67,1.45,4.17,3.7,10.55a2.79,2.79,0,0,0,2.63,1.86h9.65a2.77,2.77,0,0,0,2.28-1.19A2.81,2.81,0,0,0,1460,610.17Zm-10.29-1.82-3-8.67q-1.45-4.17-3.7-10.55a2.78,2.78,0,0,0-2.63-1.86H1411a2.79,2.79,0,0,0-2.63,1.86l-6.75,19.22H1398l25.1-68.08h5.19l25.1,68.08Zm-23.62-61.77h-.82a2.81,2.81,0,0,0-2.63,1.87q-2.34,6.64-4.06,11.54l-3.42,9.81c-1.13,3.26-2.49,7.1-4.05,11.52a2.8,2.8,0,0,0,2.63,3.72h23.89a2.81,2.81,0,0,0,2.27-1.18,2.78,2.78,0,0,0,.36-2.54l-11.54-32.87A2.8,2.8,0,0,0,1426.06,546.58Zm-8.41,32.87q1.53-4.34,2.74-7.82l3.43-9.8,1.82-5.22,8,22.84Z"/><path class="cls-9" d="M1470.56,537.48v8.27h23.73v65.39h9.19V545.75h23.74v-8.27Z"/><path class="cls-9" d="M1527.22,534.69h-56.66a2.78,2.78,0,0,0-2.79,2.79v8.27a2.78,2.78,0,0,0,2.79,2.79h20.94v62.6a2.78,2.78,0,0,0,2.79,2.78h9.19a2.79,2.79,0,0,0,2.79-2.78v-62.6h21a2.79,2.79,0,0,0,2.78-2.79v-8.27A2.79,2.79,0,0,0,1527.22,534.69Zm-2.79,8.27h-21a2.78,2.78,0,0,0-2.78,2.79v62.6h-3.62v-62.6a2.79,2.79,0,0,0-2.79-2.79h-21v-2.69h51.09Z"/><path class="cls-9" d="M1608.21,537.48,1583,598.94h-.81L1557,537.48h-10.67v73.66h8.58V554.89h.61l23.22,56.25h7.76l23.23-56.25h.61v56.25h8.58V537.48Z"/><path class="cls-9" d="M1618.88,534.69h-10.67a2.82,2.82,0,0,0-2.59,1.74l-23,56.16-23-56.16a2.79,2.79,0,0,0-2.58-1.74h-10.67a2.8,2.8,0,0,0-2.79,2.79v73.66a2.79,2.79,0,0,0,2.79,2.78h8.58a2.77,2.77,0,0,0,2.78-2.78V567.45l18.48,44.75a2.76,2.76,0,0,0,2.57,1.72h7.76a2.79,2.79,0,0,0,2.58-1.72l18.47-44.75v43.69a2.78,2.78,0,0,0,2.79,2.78h8.58a2.78,2.78,0,0,0,2.78-2.78V537.48A2.79,2.79,0,0,0,1618.88,534.69Zm-2.79,73.66h-3V554.89a2.78,2.78,0,0,0-2.78-2.79h-.61a2.78,2.78,0,0,0-2.58,1.72l-22.51,54.53h-4l-22.52-54.53a2.78,2.78,0,0,0-2.57-1.72h-.61a2.78,2.78,0,0,0-2.79,2.79v53.46h-3V540.27h6l24.5,59.72a2.77,2.77,0,0,0,2.59,1.73h.81a2.77,2.77,0,0,0,2.58-1.73l24.5-59.72h6Z"/><path class="cls-28" d="M1656.36,655.81l-.66-1.75-.33-.85c-.48.18-11.94,4.68-29.47,17.92-16.06,12.12-40.5,34.22-65.74,70.69-28.28,40.86-51.82,91.12-69.94,149.37-22.63,72.7-36.86,158.15-42.29,254l2.79.17,2.77.15c5.4-95.17,19.5-180,41.9-252.16,17.91-57.67,41.13-107.41,69-147.84,24.79-35.92,48.76-57.68,64.49-69.62,16.95-12.84,28.25-17.36,28.48-17.45Z"/><path class="cls-28" d="M1571.2,1179.45l-4.8-2.85,99.85-168.37-161,69.27a2.79,2.79,0,0,1-3.25-4.34l235.67-284.84,4.29,3.56-228.3,275.93,158.26-68.09a2.79,2.79,0,0,1,3.5,4Z"/><path class="cls-1" d="M1476,646v5.58H1339.52c4.27-1.05,8.63-2,13-2.89h3.15V646Z"/><rect class="cls-1" x="1133.29" y="1039.52" width="269.43" height="5.57"/><rect class="cls-1" x="1210.9" y="1085.96" width="91.29" height="5.57"/><rect class="cls-1" x="1257.48" y="772.08" width="163.62" height="5.57"/><path class="cls-9" d="M1405,840c-23.92,36.72-36.21,85.84-42.44,137.27H1224.28c6.22-51.42,18.52-100.55,42.44-137.27Z"/><rect class="cls-8" x="1236.09" y="870.25" width="161.22" height="24.4"/><rect class="cls-8" x="1222.99" y="924.86" width="161.22" height="24.4"/><rect class="cls-1" x="1663.88" y="496.32" width="5.57" height="82.32"/><path class="cls-14" d="M2007.68,1451v52.44a3.26,3.26,0,0,1-.89,2.11,6.51,6.51,0,0,1-1.51,1.35c-7.31,5.26-31,9.87-64.55,13a4.55,4.55,0,0,1-.52,0c-22.06,2-48.35,3.54-77.09,4.21h-.53c-10.73.21-21.82.36-33.17.36q-10.15,0-20-.13c-79.35-1.05-142.94-8.26-155.88-17.52a5.91,5.91,0,0,1-2-2.12,2.67,2.67,0,0,1-.38-1.34V1451Z"/><path class="cls-30" d="M1940.72,1456.73v63.2c-22.16,2.09-48.63,3.59-77.6,4.26v-67.46Z"/><path class="cls-11" d="M2007.7,1451a.62.62,0,0,1,0,.19c-.15,2.2-3.19,4.34-8.66,6.33-10.86,4-31.39,7.42-58.29,10-22.16,2.12-48.64,3.61-77.61,4.26q-16.39.38-33.72.37-10.47,0-20.63-.14c-88.22-1.2-156.86-10-157.64-20.78a.62.62,0,0,1,0-.19c0-3.75,8.26-7.27,22.73-10.31q2.64-.57,5.53-1.09c31.73-5.85,87.07-9.71,150-9.71,19.73,0,38.69.38,56.42,1.09,30.32,1.19,57,3.31,77.62,6.1C1991,1440.79,2007.7,1445.68,2007.7,1451Z"/><path class="cls-14" d="M2030.38,1393.12v52.45c0,3.75-8.24,7.26-22.7,10.3q-4,.87-8.66,1.65c-9.94,1.72-21.93,3.23-35.58,4.53-7.15.67-14.74,1.3-22.71,1.82-16.77,1.16-35.26,2-54.91,2.44-7.4.14-15,.27-22.7.31-3.63,0-7.3,0-11,0-21.2,0-41.51-.44-60.36-1.23-54.62-2.33-96.84-7.72-111.92-14.43-3.92-1.72-6-3.54-6-5.43v-52.45Z"/><path class="cls-30" d="M1963.43,1398.85v63.2c-22.16,2.09-48.64,3.59-77.61,4.26v-67.46Z"/><path class="cls-11" d="M2030.39,1393.12c0,11.66-79.82,21.11-178.28,21.11s-178.28-9.45-178.28-21.11,79.81-21.11,178.28-21.11S2030.39,1381.46,2030.39,1393.12Z"/><path class="cls-14" d="M2017.41,1332.56V1385c0,6.67-26.14,12.62-67,16.49-22.16,2.08-48.63,3.58-77.6,4.25-10.9.22-22.17.36-33.71.36-98.48,0-178.29-9.45-178.29-21.1v-52.44Z"/><path class="cls-30" d="M1950.45,1338.28v63.21c-22.16,2.08-48.63,3.58-77.6,4.25v-67.46Z"/><ellipse class="cls-11" cx="1839.13" cy="1332.56" rx="178.28" ry="21.11"/><path class="cls-14" d="M2033.4,1272v52.44c0,6.67-26.14,12.63-67,16.49-22.16,2.09-48.63,3.59-77.61,4.25-10.9.23-22.16.37-33.7.37-98.49,0-178.29-9.46-178.29-21.11V1272Z"/><path class="cls-30" d="M1966.44,1277.72v63.2c-22.16,2.09-48.63,3.59-77.61,4.25v-67.45Z"/><path class="cls-11" d="M2033.4,1272c0,11.66-79.82,21.11-178.28,21.11s-178.28-9.45-178.28-21.11,79.82-21.11,178.28-21.11S2033.4,1260.33,2033.4,1272Z"/><path class="cls-14" d="M1999.68,1214.11v52.44c0,6.67-26.13,12.62-67,16.49-22.16,2.08-48.64,3.58-77.61,4.25-10.9.22-22.16.36-33.7.36-98.49,0-178.29-9.45-178.29-21.1v-52.44Z"/><path class="cls-30" d="M1932.73,1219.83V1283c-22.16,2.08-48.64,3.58-77.61,4.25v-67.46Z"/><ellipse class="cls-11" cx="1821.41" cy="1214.11" rx="178.28" ry="21.11"/><path class="cls-14" d="M2011.85,1156.22v52.45c0,6.67-26.14,12.62-66.95,16.48-22.17,2.09-48.64,3.59-77.61,4.26-10.9.22-22.16.36-33.7.36-98.49,0-178.29-9.45-178.29-21.1v-52.45Z"/><path class="cls-30" d="M1944.9,1162v63.2c-22.17,2.09-48.64,3.59-77.61,4.26V1162Z"/><ellipse class="cls-11" cx="1833.58" cy="1156.23" rx="178.28" ry="21.11"/><ellipse class="cls-14" cx="1833.58" cy="1156.23" rx="117" ry="13.85"/><path class="cls-16" d="M319.82,1498l260.81-3.22,260.81-2.42,130.4-1.52,65.21-.41,32.6.07,32.6.26,65.2.94c21.74.48,43.47.8,65.2,1.44,43.47,1.12,86.94,2.55,130.41,4.86v1.6c-43.47,2.31-86.94,3.74-130.41,4.86-21.73.64-43.46,1-65.2,1.44l-65.2.94-32.6.26-32.6.07-65.21-.41-130.4-1.52-260.81-2.42-260.81-3.22Z"/><circle class="cls-14" cx="1788.53" cy="1021.89" r="131.15" transform="translate(-198.73 1563.99) rotate(-45)"/><path class="cls-11" d="M1788.53,916.25a105.64,105.64,0,1,1-74.7,30.94,104.91,104.91,0,0,1,74.7-30.94Zm0-25.52a131.16,131.16,0,1,0,131.16,131.16,131.15,131.15,0,0,0-131.16-131.16Z"/><path class="cls-11" d="M1747.68,1067.67c7.77,5.07,21.54,10.48,34.72,10.48,19.16,0,28.13-9.58,28.13-21.57,0-12.57-7.48-19.44-26.93-26.63-26-9.26-38.31-23.64-38.31-41,0-23.34,18.86-42.5,50-42.5,14.67,0,27.54,4.19,35.61,9l-6.58,19.16a56.37,56.37,0,0,0-29.64-8.39c-15.55,0-24.22,9-24.22,19.77,0,12,8.67,17.35,27.51,24.54,25.15,9.58,38,22.15,38,43.69,0,25.45-19.74,43.41-54.18,43.41-15.86,0-30.51-3.9-40.7-9.87Z"/><rect class="cls-11" x="1779.36" y="932.79" width="27.68" height="19.35"/><rect class="cls-11" x="1779.36" y="1091.63" width="27.68" height="19.35"/><path class="cls-1" d="M1773.81,917.58a134.28,134.28,0,0,0-40.52,17.58,110.82,110.82,0,0,0-17.2,13.63,96.8,96.8,0,0,0-13.9,16.77,84.85,84.85,0,0,0-9.27,19.53l-.85,2.57c-.28.85-.58,1.7-.78,2.58-.46,1.74-.9,3.49-1.37,5.23a23.77,23.77,0,0,0-.59,2.63c-.18.89-.33,1.78-.52,2.66l-.56,2.65c-.21.88-.26,1.79-.4,2.69l-.77,5.38c-.22,1.8-.28,3.62-.45,5.44-.45,3.62-.32,7.28-.48,10.95-.12,1.84,0,3.68.07,5.52l.12,5.54c.2,3.7.54,7.4.66,11.16l-.61.12c-1.05-3.6-2-7.24-2.88-10.91l-1-5.58a55.83,55.83,0,0,1-.78-5.62,102.66,102.66,0,0,1-.64-11.38v-2.86c0-1,0-1.91.06-2.86l.48-5.72c.11-.95.14-1.91.32-2.85l.49-2.84c.16-1,.35-1.89.52-2.83a26.68,26.68,0,0,1,.61-2.82c.5-1.86,1-3.7,1.55-5.55a25.85,25.85,0,0,1,.94-2.73l1-2.7,1.05-2.69,1.24-2.6,1.25-2.6.62-1.29.71-1.25,2.86-5,3.2-4.77a101.76,101.76,0,0,1,15.21-17,113.53,113.53,0,0,1,18.4-13.25,135.36,135.36,0,0,1,20.41-9.57,120.26,120.26,0,0,1,21.64-6Z"/><path class="cls-1" d="M1779.56,939.54c.15.73.28,1.46.4,2.2l.33,2.19.28,2.19.22,2.19.1,1-1.25.43c-1,.35-2.13.75-3.17,1.2s-2.12.91-3.16,1.4c-2.08,1-4.11,2-6.11,3.11a41.14,41.14,0,0,0-10.93,8.25,45,45,0,0,0-4.24,5.46,42.87,42.87,0,0,0-3.24,6.15,48,48,0,0,0-3.31,13.68h-.39a46.73,46.73,0,0,1,2.05-14.28,40.69,40.69,0,0,1,2.88-6.73,41.19,41.19,0,0,1,4.1-6.13,48.9,48.9,0,0,1,11.06-9.82,35,35,0,0,1,6.66-3.24,35.42,35.42,0,0,1,7.24-1.84l-1.14,1.4.22-2.19.28-2.19.32-2.19c.12-.74.26-1.47.41-2.2Z"/><path class="cls-1" d="M1744.06,1078.07c.24-1.85.58-3.67,1-5.48.19-.9.37-1.81.58-2.71s.4-1.8.63-2.69a1.45,1.45,0,0,1,1.77-1,2.26,2.26,0,0,1,.33.13l.22.13c2.15,1.18,4.46,2.31,6.75,3.35s4.59,2.06,6.91,3a56.19,56.19,0,0,0,14.48,4.14,48.42,48.42,0,0,0,7.52.41,37.74,37.74,0,0,0,7.48-1,36.69,36.69,0,0,0,13.73-6.49l.25.3a36.27,36.27,0,0,1-13.52,7.85,41.53,41.53,0,0,1-15.76,1.68,68.1,68.1,0,0,1-15.57-3.27,45.77,45.77,0,0,1-7.28-3.19,50.24,50.24,0,0,1-6.72-4.34l2.32-.78c-.34.85-.72,1.69-1.09,2.54s-.75,1.68-1.13,2.52c-.78,1.68-1.58,3.35-2.48,5Z"/><path class="cls-14" d="M1280.27,1498.45v34.8c0,4.43-17.35,8.38-44.44,10.94-14.7,1.39-32.27,2.38-51.5,2.83-7.23.14-14.7.24-22.36.24-65.36,0-118.32-6.28-118.32-14v-34.8Z"/><path class="cls-30" d="M1235.83,1502.25v41.94c-14.7,1.39-32.27,2.38-51.5,2.83v-44.77Z"/><ellipse class="cls-11" cx="1161.96" cy="1498.45" rx="118.31" ry="14.01"/><ellipse class="cls-14" cx="1161.96" cy="1498.45" rx="77.64" ry="9.19"/><path class="cls-14" d="M1402.3,1499.09l-6.67,34.16c-.85,4.35-18.63,4.9-45.71,2.22-14.7-1.46-32.13-3.85-51.09-7.1-7.12-1.24-14.48-2.59-22-4-64.15-12.53-114.92-28.85-113.44-36.43l6.67-34.16Z"/><path class="cls-30" d="M1358,1494.31l-8,41.16c-14.7-1.46-32.13-3.85-51.09-7.1l8.59-43.94Z"/><ellipse class="cls-11" cx="1286.19" cy="1476.41" rx="14.01" ry="118.31" transform="translate(-409.42 2455.69) rotate(-78.95)"/><path class="cls-14" d="M1362.39,1491.3c-1,5-35.88,2.36-78-5.86s-75.41-18.93-74.44-23.91,35.88-2.36,78,5.86S1363.36,1486.31,1362.39,1491.3Z"/><path class="cls-1" d="M1167.7,1465.85c-.47,3.72-1,7.43-1.54,11.14s-1.1,7.41-1.7,11.1l-.4-1c1.08.75,2.31,1.46,3.49,2.16s2.43,1.37,3.69,2,2.46,1.3,3.73,1.88l3.8,1.79c5.13,2.23,10.28,4.42,15.55,6.33s10.56,3.78,15.89,5.5c2.69.83,5.37,1.63,8,2.49s5.4,1.55,8.1,2.34l4.05,1.15c1.35.39,2.72.7,4.07,1.07l8.16,2.15,16.4,4c5.5,1.2,11,2.45,16.5,3.7s11,2.32,16.55,3.6q-8.43-.84-16.85-1.9c-2.81-.36-5.59-.84-8.39-1.27s-5.59-.86-8.38-1.34l-8.33-1.62-4.17-.82c-1.39-.28-2.77-.56-4.15-.9-5.51-1.31-11.06-2.47-16.5-4.06a280.19,280.19,0,0,1-32.33-10.62q-7.92-3.15-15.57-7l-3.77-2c-1.26-.66-2.49-1.41-3.73-2.11a69.27,69.27,0,0,1-7.18-4.82l-.53-.42.14-.63c.83-3.65,1.73-7.29,2.6-10.93S1166.75,1469.47,1167.7,1465.85Z"/><path class="cls-1" d="M1788.21,1155.62c-30.28,0-59.67-10-82.29-28.66l3.19-3.86c28.65,23.64,68.66,32.82,107,24.55a126,126,0,0,0,81.12-57.46l4.26,2.61a131.07,131.07,0,0,1-84.32,59.74A138,138,0,0,1,1788.21,1155.62Z"/><path class="cls-28" d="M1841.87,1116l-2.23-4.47c4.19-2.09,17.75-10.92,30-26.44,14.89-18.9,22.31-40.16,22.05-63.18-.59-53.43-40.86-82.28-41.27-82.57l2.87-4.09c.43.3,42.79,30.64,43.4,86.61.26,23.85-7.73,46.78-23.12,66.32C1861.21,1103.85,1847.43,1113.23,1841.87,1116Z"/><rect class="cls-1" x="1181.24" y="411.38" width="5" height="283.04" transform="translate(-41.83 1005.59) rotate(-45.31)"/><rect class="cls-1" x="1079.57" y="553.03" width="5" height="241.03" transform="translate(-148.37 1006.03) rotate(-47.02)"/><path class="cls-1" d="M1471.38,1385.24c-13.83-.75-26.46,6.33-45.84-6.14-4.73-17-11.51-35.25-17.65-53.13l8.28,4.21-10.52-10.7c-.51-1.58-1-3.13-1.55-4.68l4.86,1-7.26-8.65c-2.65-8.5-4.92-16.75-6.55-24.57,13.09,16.42,27.21,33.62,40.72,51.27l-.91,7.18,4.54-2.43A520.67,520.67,0,0,1,1471.38,1385.24Z"/><path class="cls-31" d="M1526.87,1323.78l-6.78,3.07,4.32,1c-10.09,17.19-16.77,37.43-17.94,55.19-9.51-.43-19.28-6.22-29.51-25.79,17.12-21.18,39.07-44.78,66.35-53.7A104.15,104.15,0,0,0,1526.87,1323.78Z"/><path class="cls-11" d="M1515.73,1199.89l-4.54,7,3.88-1.52c-3.21,24.69-9.64,50.19-13.76,69.58-.5,2.51-1,4.91-1.44,7.18-.9,4.75-1.55,9.51-2,14.26l-7.69,11.56-6.31,9.46,12.51-5.78.69-.4a4.64,4.64,0,0,0,0,.64c-.24,15.22,1,30.34,1.66,45.37.32,6.51.53,13,.51,19.52a24.62,24.62,0,0,1-6.73,16.79,22.55,22.55,0,0,1-16.4,7.18,26.93,26.93,0,0,1-4.3-.34c-9-1.58-16.1-8.81-18.31-17.73a103.49,103.49,0,0,1-2.3-34.45,155.4,155.4,0,0,1,8.25-36.9,224.82,224.82,0,0,1,11.24-26.32c1.74-3.47,3.5-7.08,5.26-10.76,10.42-4.81,6.73-7.88,4.25-9.08.43-.94.85-1.87,1.28-2.83,6.09.43,10.47-.08,1.87-4.19.91-2,1.79-4,2.67-6,4.43-10.17,8.68-20.59,12.57-30.73,8.2-21.28,14.77-41.44,17.92-55.91C1517.55,1176.07,1517.07,1187.82,1515.73,1199.89Z"/><path class="cls-10" d="M1442.68,1400.06a8.2,8.2,0,0,1-4.75-2.19c-12.87-12.15-24.43-26.7-39-37.11-5.47-3.9-12-7.24-18.69-10.47l7.21-3.93-11.43,1.87-2.56-1.22,4.86-2.65-7.69,1.26c-7.61-3.79-14.77-7.72-19.87-12.47,22.11,2.88,43.63,6.11,64.19,17.09,10.34,5.52,25.79,14.28,38.32,24.35C1464.44,1383.61,1456.89,1402.33,1442.68,1400.06Z"/><path class="cls-12" d="M1560.51,1344.41H1550l7.53,1.57c-.69.38-1.41.75-2.11,1.13-7,3.76-13.8,7.85-19.12,13.4-.26.24-.48.48-.72.72a53.7,53.7,0,0,0-10.65,17.92l-11.8,2.53,5.61,1.74,4.27,1.31c-.7,2.13-1.34,4.3-2,6.46a17.81,17.81,0,0,1-20,12.65l-.4-.08c-12.17-2-19-15.54-12.81-26.22a68.55,68.55,0,0,1,15.67-18.21c2-1.62,4-3.17,6.17-4.61,1-.73,2-1.39,3.09-2.06s2.27-1.42,3.45-2.08l2.94,9.4,4.51-12.29.43-1.2c16.1-7.47,34.25-11,50.09-10C1569.91,1339.39,1565.21,1341.9,1560.51,1344.41Z"/><path class="cls-12" d="M1440.81,1402.3c-9.08,9.43-20.61-2.77-31.83-6.54-5-1.65-10.46-3.26-16.2-4.57l5.31-7.66-11,6.41c-10.95-2.14-22.37-3.2-32.36-2a153.09,153.09,0,0,1,17.49-7.18s4,2.19,4,2.19l-1-3.23c15.7-5.16,34.23-8.87,45-4.92C1443.8,1380,1449.54,1393.22,1440.81,1402.3Z"/><path class="cls-31" d="M1462.78,1399.82h-.43c-14.12.35-32.79-6.06-31-17a48.63,48.63,0,0,0-1.3-20.58l8.25,4.51-10.25-10.77c-4.88-13-13.61-25.23-21.88-36a201.91,201.91,0,0,1,27,19.29l3.33,7.32,0-4.48c2.33,2.07,4.61,4.17,6.77,6.35l1.9,13.43,3.17-8.22a141.13,141.13,0,0,1,23.36,33.41C1474.78,1393.47,1471.29,1399.57,1462.78,1399.82Z"/><path class="cls-31" d="M1496.38,1311.65l.69-.4a4.64,4.64,0,0,0,0,.64Z"/><path class="cls-1" d="M1480.73,1400.25s-12.51-73.4,15.65-140.15c0,0-28.25,40.12-20.3,140.65A8.71,8.71,0,0,0,1480.73,1400.25Z"/><path class="cls-1" d="M1498.62,1403.31s5.77-29.11,28.24-42c0,0-23.84,7.47-31.83,40.56C1495,1401.85,1496.93,1403.66,1498.62,1403.31Z"/><path class="cls-10" d="M1430.18,1344.66s28.92,34.91,28.35,55.09a37.31,37.31,0,0,1-5.72-.63C1449.83,1398.53,1458.94,1384.56,1430.18,1344.66Z"/><path class="cls-32" d="M1539.17,1432a72,72,0,1,1-135.9-33.23c.6-1.15,1.24-2.26,1.87-3.35h124A71.69,71.69,0,0,1,1539.17,1432Z"/><path class="cls-7" d="M1488.93,1439.62c0,22.55-33.38,40.85-74.78,41.12a72,72,0,0,1-10.88-82c3.23-.24,6.54-.36,9.89-.36C1455,1398.43,1488.93,1416.85,1488.93,1439.62Z"/><rect class="cls-16" x="1399.7" y="1390.44" width="134.43" height="10"/></g></g></svg>